<?xml version="1.0" encoding="utf-8"?>
<!-- Generator: Adobe Illustrator 22.0.0, SVG Export Plug-In . SVG Version: 6.00 Build 0)  -->
<svg version="1.1" id="Layer_1" xmlns="http://www.w3.org/2000/svg" xmlns:xlink="http://www.w3.org/1999/xlink" x="0px" y="0px"
	 viewBox="0 0 229 191" style="enable-background:new 0 0 229 191;" xml:space="preserve">
<style type="text/css">
	.st0{fill:none;}
	.st1{fill:#E82844;}
	.st2{fill:#262626;}
	.st3{fill:none;stroke:#E82844;stroke-width:1.504;stroke-miterlimit:10;}
	.st4{fill:none;stroke:#262626;stroke-width:1.3766;stroke-miterlimit:10;}
</style>
<title>Asset 1</title>
<g>
	<rect x="32.5" y="41.6" class="st0" width="160.3" height="113.7"/>
	<g>
		<g>
			<polygon class="st1" points="111.9,100.6 111.4,97.5 110.2,97.7 110.8,100.6 			"/>
			<path class="st1" d="M118.2,100.6c-0.8-1.7-1.5-3.3-2.4-4.8c-0.4,0.1-0.8,0.1-1.2,0.2l-1,0.1c0.8,1.4,1.5,2.9,2.3,4.4
				L118.2,100.6z"/>
			<polygon class="st1" points="114.8,84.9 114.2,85.7 115.3,86.7 115.9,86.1 			"/>
			<path class="st2" d="M114.6,94.1c-0.2-0.3-0.4-0.7-0.6-1l-0.3-0.5h-0.1c-3.1,0.5-6.3,1.1-9.3,2.1c-2.7,0.8-4.4,1.6-4.2,2.8
				l1.6-0.3c0,0.1,0,0.2-0.1,0.3c0.4-0.5,4.5-2.1,12.3-3.3L114.6,94.1L114.6,94.1"/>
			<polyline class="st3" points="110.5,95.7 109.3,88.6 104.6,91.4 100,80.1 			"/>
			<path class="st1" d="M108.2,90c0,0.6-0.5,1.1-1.1,1.1S106,90.6,106,90s0.5-1.1,1.1-1.1l0,0C107.7,88.9,108.2,89.4,108.2,90"/>
			<path class="st2" d="M88.6,80.4c0.2-0.1,8.4,0,8.4,0l1.3,2.3"/>
			<path class="st1" d="M114.3,95.2c0.3-0.1,0.6-0.1,0.9-0.1c-2.3-4.1-4.9-7.9-8-11.4l-1.5,1.4c2.7,3.2,5.2,6.7,7.3,10.4
				C113.5,95.3,114,95.2,114.3,95.2"/>
			<rect x="100.2" y="76.8" class="st1" width="8" height="7.2"/>
			<path class="st1" d="M112.4,81.1c-0.1,1.1-0.5,2.2-1.2,3.1l2.1,1.8l2-2.1L112.4,81.1z"/>
			<line class="st4" x1="102.1" y1="80.4" x2="106.3" y2="80.4"/>
			<path class="st2" d="M128.1,93.1c-0.2-1.2-2.1-1.5-4.9-1.4c-2.9,0.1-5.7,0.3-8.6,0.8l0.9,1.5c6.9-1,10.6-0.7,11.2-0.3
				c-0.1-0.1-0.1-0.2-0.1-0.3L128.1,93.1z"/>
			<path class="st2" d="M110.4,74.6l2-1.6l-7.5,0.3h-0.4c-4.2,0-6.4,1.9-7.3,4.6l0,0l-0.1,0.3c0,0.1-0.1,0.1-0.1,0.3v0.1
				c-0.1,0.3-0.1,0.7-0.1,1c-0.3-0.7-0.5-1.5-0.5-2.3l-12.8,0.4l12.9,3.6c0.1,0.3,3,19.4,3,19.4h2.8l-0.3-1.9
				c0.8,0.1,1.7,0.2,2.5,0.1h0.5c3.2-0.1,6.4-0.4,9.5-0.9s6.3-1.1,9.3-2.1c0.9-0.3,1.8-0.6,2.7-1c1.4,2.1,2.6,4.1,3.6,5.8h3.2
				C129.5,93.7,120.4,79.1,110.4,74.6z M104.2,77.3c1.8,0,3.2,1.4,3.2,3.2c0,1.8-1.4,3.2-3.2,3.2s-3.2-1.4-3.2-3.2l0,0
				C100.9,78.7,102.4,77.3,104.2,77.3z M114.3,95.8c-7.5,1.2-11.9,1-12.6,0.6c0.1,0-1.3-9.5-1.3-9.5c0.5,0.2,1.1,0.3,1.7,0.5
				c4,0.9,6.9-0.7,8.6-3.7c0.8-1.6,1.1-3.5,0.9-5.3c3.9,2.5,8.3,6.7,12.3,12.2c0.6,0.8,1.2,1.7,1.7,2.5
				C123.8,93.8,120.1,95,114.3,95.8z"/>
		</g>
		<path class="st1" d="M117.6,121.3c-0.3,0.1-0.6,0.3-0.9,0.5c0-0.5,0-0.9,0.1-1.4v-1.3l-1,0.7c-0.5,0.4-1.1,0.8-1.7,1.2l-0.7,0.6
			c0-0.4-0.1-0.9-0.1-1.3l-0.1-0.9l-0.7,0.5c-0.3,0.2-0.5,0.5-0.8,0.7s-0.5,0.5-0.8,0.7c-0.5,0.5-1,0.9-1.5,1.5
			c0.6-0.3,1.3-0.7,1.9-1c0.3-0.1,0.6-0.3,0.9-0.5l0.1-0.1c-0.1,0.5-0.1,1.1-0.1,1.6l-0.1,1.1l1-0.7c0.6-0.4,1.1-0.8,1.7-1.2
			l0.7-0.5c0,0.4,0,0.8,0.1,1.2v1.1l0.9-0.7c0.3-0.2,0.5-0.5,0.8-0.7s0.5-0.5,0.8-0.7c0.5-0.5,1-1,1.5-1.5
			C118.9,120.7,118.2,120.9,117.6,121.3z"/>
		<g>
			<polygon class="st2" points="88.3,113.2 86.5,109.8 84.7,113.2 83.4,113.2 86.5,107.5 89.5,113.2 			"/>
			<polygon class="st2" points="129.6,113.2 127.8,109.8 125.9,113.2 124.8,113.2 127.8,107.5 130.8,113.2 			"/>
			<polygon class="st2" points="144.3,113.2 142.5,109.8 140.7,113.2 139.5,113.2 142.5,107.5 145.6,113.2 			"/>
			<path class="st2" d="M94.6,113.3c-1.3-0.1-2.4-1.2-2.5-2.6v-2.8h1v2.8c-0.1,0.8,0.5,1.5,1.3,1.5c0.8,0.1,1.5-0.5,1.5-1.3
				c0-0.1,0-0.1,0-0.3v-2.8H97v2.8C97.1,112.1,96,113.2,94.6,113.3z"/>
			<polygon class="st2" points="102.1,113.2 102.1,109 100.4,109 100.4,107.9 105,107.9 105,109 103.2,109 103.2,113.2 			"/>
			<polygon class="st2" points="134.7,113.2 134.7,109 132.9,109 132.9,107.9 137.5,107.9 137.5,109 135.8,109 135.8,113.2 			"/>
			<polygon class="st2" points="117.4,111.1 117.4,113.2 116.4,113.2 116.4,107.5 119,111.8 121.7,107.5 121.7,113.2 120.6,113.2 
				120.6,111.1 119,113.5 			"/>
			<path class="st2" d="M110.5,113.3c-1.5,0-2.7-1.2-2.7-2.7s1.2-2.7,2.7-2.7s2.7,1.2,2.7,2.7l0,0
				C113.2,112.1,112,113.3,110.5,113.3z M110.5,108.9c-0.9,0-1.7,0.7-1.7,1.7c0,0.9,0.7,1.7,1.7,1.7c0.9,0,1.7-0.7,1.7-1.7l0,0
				C112.2,109.7,111.4,108.9,110.5,108.9z"/>
			<polygon class="st2" points="109.6,107 110.6,105.2 111.6,105.2 110.6,107 			"/>
		</g>
		<rect x="83.4" y="73.1" class="st0" width="62.1" height="50.9"/>
	</g>
</g>
</svg>
