<?xml version="1.0" encoding="utf-8"?>
<!-- Generator: Adobe Illustrator 22.0.0, SVG Export Plug-In . SVG Version: 6.00 Build 0)  -->
<svg version="1.1" id="Layer_1" xmlns="http://www.w3.org/2000/svg" xmlns:xlink="http://www.w3.org/1999/xlink" x="0px" y="0px"
	 viewBox="0 0 229 191" style="enable-background:new 0 0 229 191;" xml:space="preserve">
<style type="text/css">
	.st0{fill:#FFEA99;}
	.st1{fill:#E82844;}
	.st2{fill:#262626;}
	.st3{fill:none;stroke:#E82844;stroke-width:2.2523;stroke-miterlimit:10;}
	.st4{fill:none;stroke:#262626;stroke-width:2.0616;stroke-miterlimit:10;}
	.st5{fill:none;}
</style>
<title>Asset 1</title>
<rect class="st0" width="229" height="191"/>
<g>
	<g>
		<polygon class="st1" points="110.6,101.7 109.8,97 108.1,97.3 108.9,101.7 		"/>
		<path class="st1" d="M120,101.7c-1.2-2.6-2.3-4.9-3.6-7.2c-0.6,0.1-1.2,0.2-1.8,0.3l-1.5,0.2c1.2,2.1,2.3,4.3,3.5,6.6L120,101.7z"
			/>
		<polygon class="st1" points="115,78.2 114,79.3 115.7,80.9 116.6,79.9 		"/>
		<path class="st2" d="M114.7,91.9c-0.3-0.5-0.6-1-0.9-1.5l-0.4-0.7h-0.1c-4.7,0.7-9.4,1.7-14,3.1c-4,1.2-6.6,2.4-6.3,4.2l2.4-0.4
			c0,0.2,0,0.3-0.1,0.5c0.6-0.8,6.7-3.2,18.4-5L114.7,91.9L114.7,91.9"/>
		<polyline class="st3" points="108.5,94.3 106.7,83.7 99.7,87.8 92.8,70.9 		"/>
		<path class="st1" d="M105,85.8c0,0.9-0.7,1.7-1.7,1.7c-0.9,0-1.7-0.7-1.7-1.7c0-0.9,0.7-1.7,1.7-1.7c0,0,0,0,0,0
			C104.3,84.1,105,84.9,105,85.8"/>
		<path class="st2" d="M75.7,71.4c0.3-0.1,12.6,0,12.6,0l1.9,3.4"/>
		<path class="st1" d="M114.2,93.5c0.5-0.1,0.9-0.1,1.4-0.2c-3.4-6.1-7.4-11.8-12-17.1l-2.3,2.1c4.1,4.8,7.8,10,11,15.5
			C113,93.7,113.7,93.6,114.2,93.5"/>
		<rect x="93.1" y="66" class="st1" width="12" height="10.8"/>
		<path class="st1" d="M111.3,72.5c-0.2,1.7-0.8,3.3-1.8,4.7l3.2,2.7l3-3.2L111.3,72.5z"/>
		<line class="st4" x1="95.9" y1="71.4" x2="102.2" y2="71.4"/>
		<path class="st2" d="M134.9,90.4c-0.3-1.8-3.1-2.2-7.3-2.1c-4.3,0.1-8.6,0.5-12.9,1.2l1.3,2.2c10.3-1.5,15.9-1.1,16.7-0.5
			c-0.1-0.1-0.2-0.3-0.2-0.4L134.9,90.4z"/>
		<path class="st2" d="M108.4,62.7l3-2.4l-11.2,0.4h-0.6c-6.3,0-9.6,2.9-11,6.9l0,0l-0.1,0.4c0,0.1-0.1,0.2-0.1,0.4l-0.1,0.3
			c-0.1,0.5-0.1,1-0.1,1.5c-0.5-1.1-0.7-2.3-0.8-3.5l-19.2,0.6l19.3,5.4c0.1,0.5,4.5,29,4.5,29h4.2l-0.4-2.9
			c1.2,0.2,2.5,0.3,3.8,0.2h0.7c4.8-0.1,9.6-0.6,14.3-1.4c4.7-0.7,9.4-1.7,14-3.1c1.4-0.4,2.7-0.9,4-1.5c2.1,3.2,3.9,6.2,5.4,8.7
			h4.8C137,91.3,123.3,69.4,108.4,62.7z M99,66.7c2.7,0,4.8,2.1,4.8,4.8c0,2.7-2.1,4.8-4.8,4.8c-2.7,0-4.8-2.1-4.8-4.8c0,0,0,0,0,0
			C94.2,68.9,96.4,66.7,99,66.7z M114.2,94.5c-11.3,1.8-17.8,1.5-18.8,0.9c0.1,0-2-14.2-2-14.2c0.8,0.3,1.6,0.5,2.5,0.7
			c6,1.3,10.4-1,12.9-5.6c1.2-2.4,1.7-5.2,1.3-7.9c5.9,3.8,12.4,10,18.4,18.2c0.9,1.2,1.8,2.5,2.6,3.7
			C128.5,91.5,122.9,93.2,114.2,94.5z"/>
	</g>
	<path class="st1" d="M119.2,132.6c-0.4,0.2-0.9,0.5-1.3,0.7c0-0.7,0-1.4,0.1-2.1v-1.9l-1.5,1.1c-0.8,0.6-1.7,1.2-2.5,1.8l-1.1,0.9
		c0-0.6-0.1-1.3-0.1-1.9l-0.1-1.4l-1,0.8c-0.4,0.3-0.8,0.7-1.2,1s-0.8,0.7-1.2,1c-0.7,0.7-1.5,1.4-2.3,2.2c0.9-0.5,1.9-1,2.8-1.5
		c0.5-0.2,0.9-0.5,1.3-0.8l0.2-0.1c-0.1,0.8-0.1,1.6-0.1,2.4l-0.1,1.7l1.5-1c0.9-0.6,1.7-1.2,2.6-1.8l1-0.7c0,0.6,0,1.2,0.1,1.8
		l0,1.7l1.3-1c0.4-0.3,0.8-0.7,1.2-1s0.8-0.7,1.2-1.1c0.8-0.7,1.5-1.5,2.2-2.3C121.1,131.7,120.1,132.1,119.2,132.6z"/>
	<g>
		<polygon class="st2" points="75.3,120.5 72.5,115.4 69.8,120.5 68,120.5 72.5,112 77.1,120.5 		"/>
		<polygon class="st2" points="137.1,120.5 134.4,115.4 131.6,120.5 129.9,120.5 134.4,112 138.9,120.5 		"/>
		<polygon class="st2" points="159.2,120.5 156.5,115.4 153.7,120.5 151.9,120.5 156.4,112 161,120.5 		"/>
		<path class="st2" d="M84.7,120.7c-2-0.1-3.6-1.8-3.7-3.9v-4.2h1.5v4.2c-0.1,1.2,0.8,2.2,1.9,2.3c1.2,0.1,2.2-0.8,2.3-1.9
			c0-0.1,0-0.2,0-0.4v-4.2h1.6v4.2C88.4,118.9,86.8,120.5,84.7,120.7z"/>
		<polygon class="st2" points="96,120.5 96,114.2 93.4,114.2 93.4,112.6 100.3,112.6 100.3,114.2 97.6,114.2 97.6,120.5 		"/>
		<polygon class="st2" points="144.8,120.5 144.8,114.2 142.1,114.2 142.1,112.6 149,112.6 149,114.2 146.4,114.2 146.4,120.5 		"/>
		<polygon class="st2" points="118.9,117.4 118.9,120.5 117.3,120.5 117.3,112 121.3,118.4 125.3,112 125.3,120.5 123.7,120.5 
			123.7,117.4 121.3,121 		"/>
		<path class="st2" d="M108.5,120.6c-2.2,0-4.1-1.8-4.1-4.1c0-2.2,1.8-4.1,4.1-4.1c2.2,0,4.1,1.8,4.1,4.1c0,0,0,0,0,0
			C112.5,118.8,110.7,120.6,108.5,120.6z M108.5,114.1c-1.4,0-2.5,1.1-2.5,2.5c0,1.4,1.1,2.5,2.5,2.5c1.4,0,2.5-1.1,2.5-2.5
			c0,0,0,0,0,0C111,115.2,109.8,114.1,108.5,114.1z"/>
		<polygon class="st2" points="107.1,111.2 108.7,108.6 110.2,108.6 108.6,111.2 		"/>
	</g>
	<rect x="68" y="60.4" class="st5" width="93" height="76.3"/>
</g>
</svg>
