<svg xmlns="http://www.w3.org/2000/svg" viewBox="0 0 229 191">
  <defs>
    <style>
      .cls-1 {
        fill: none;
      }

      .cls-2 {
        fill: #e82844;
      }

      .cls-3 {
        fill: #262626;
      }

      .cls-4, .cls-5, .cls-6 {
        fill: none;
      }

      .cls-4 {
        stroke: #e82844;
        stroke-width: 3.07px;
      }

      .cls-4, .cls-5 {
        stroke-miterlimit: 10;
      }

      .cls-5 {
        stroke: #262626;
        stroke-width: 2.81px;
      }
    </style>
  </defs>
  <title>Asset 1</title>
  <g id="Layer_2" data-name="Layer 2">
    <g id="Layer_1-2" data-name="Layer 1">
      <g>
        <rect class="cls-1" width="229" height="191"/>
        <g>
          <g>
            <polygon class="cls-2" points="109.24 102.89 108.11 96.39 105.73 96.8 106.8 102.89 109.24 102.89"/>
            <path class="cls-2" d="M122,102.89c-1.63-3.52-3.16-6.63-4.92-9.76-.8.13-1.6.27-2.4.39l-2.09.32c1.68,2.92,3.15,5.8,4.71,9Z"/>
            <polygon class="cls-2" points="115.21 70.82 113.79 72.35 116.13 74.51 117.3 73.15 115.21 70.82"/>
            <path class="cls-3" d="M114.74,89.47c-.39-.69-.79-1.37-1.18-2l-.56-1h-.08a142.76,142.76,0,0,0-19.08,4.19c-5.44,1.67-9,3.3-8.59,5.79l3.24-.51a.89.89,0,0,1-.11.63c.88-1.15,9.13-4.35,25.06-6.86l1.31-.21h0"/>
            <polyline class="cls-4" points="106.37 92.72 103.87 78.36 94.33 83.92 84.97 60.82"/>
            <path class="cls-2" d="M101.6,81.17a2.27,2.27,0,1,1-2.27-2.26,2.27,2.27,0,0,1,2.27,2.26"/>
            <path class="cls-3" d="M61.62,61.61c.36-.12,17.23.06,17.23.06l2.6,4.62"/>
            <path class="cls-2" d="M114.1,91.66c.63-.09,1.26-.2,1.88-.3A139.71,139.71,0,0,0,99.59,68.08l-3.1,2.86a137.81,137.81,0,0,1,15,21.12c1-.13,1.85-.27,2.63-.4"/>
            <rect class="cls-2" x="85.27" y="54.22" width="16.33" height="14.77"/>
            <path class="cls-2" d="M110.16,63.05a13.69,13.69,0,0,1-2.51,6.47L112,73.15l4.12-4.34Z"/>
            <line class="cls-5" x1="89.18" y1="61.6" x2="97.69" y2="61.6"/>
            <path class="cls-3" d="M142.33,87.43c-.39-2.49-4.26-3-10-2.87a137.54,137.54,0,0,0-17.53,1.6l1.73,3.06c14-2,21.71-1.49,22.82-.72a.87.87,0,0,1-.3-.56Z"/>
            <path class="cls-3" d="M106.24,49.72l4.15-3.22L95.11,47l-.81,0c-8.65,0-13.12,3.93-14.94,9.47,0,0,0,0,0,0l-.17.52c0,.17-.08.33-.12.48l-.09.36a16.08,16.08,0,0,0-.17,2,13.11,13.11,0,0,1-1.07-4.71l-26.19.8,26.35,7.41C78,64,84,102.89,84,102.89h5.68l-.57-4a32.8,32.8,0,0,0,5.14.32h1a146.24,146.24,0,0,0,19.52-1.9,145.12,145.12,0,0,0,19.15-4.2A37.57,37.57,0,0,0,139.35,91c2.86,4.34,5.35,8.43,7.37,11.89h6.51C145.18,88.61,126.48,58.78,106.24,49.72ZM93.43,55.2a6.56,6.56,0,1,1-6.55,6.55A6.56,6.56,0,0,1,93.43,55.2Zm20.64,37.89c-15.45,2.44-24.31,2-25.62,1.26.1.06-2.76-19.33-2.76-19.33a27,27,0,0,0,3.38,1c8.14,1.8,14.21-1.3,17.54-7.6a17.67,17.67,0,0,0,1.72-10.73c8,5.15,16.84,13.58,25.07,24.77,1.23,1.68,2.42,3.36,3.57,5C133.6,88.94,126,91.22,114.07,93.09Z"/>
          </g>
          <path class="cls-2" d="M120.93,145c-.59.33-1.18.66-1.76,1,0-1,.06-1.94.07-2.9l0-2.55-2.09,1.5c-1.15.82-2.33,1.61-3.46,2.47l-1.55,1.16c0-.86-.08-1.72-.15-2.58l-.15-1.88-1.36,1.1c-.55.45-1.08.93-1.62,1.4s-1.07.93-1.6,1.41c-1,1-2.09,1.94-3.1,3q1.93-1,3.78-2c.62-.34,1.23-.71,1.84-1.08l.21-.13c-.07,1.09-.16,2.17-.19,3.25l-.08,2.33,2.05-1.32c1.2-.77,2.33-1.62,3.5-2.43l1.41-1c0,.82.06,1.63.08,2.45l.06,2.36,1.78-1.42c.56-.44,1.08-.93,1.62-1.39s1.06-.95,1.58-1.44a38.4,38.4,0,0,0,3-3.11A36.79,36.79,0,0,0,120.93,145Z"/>
          <g>
            <polygon class="cls-3" points="61.05 128.53 57.29 121.47 53.55 128.53 51.13 128.53 57.28 116.9 63.48 128.53 61.05 128.53"/>
            <polygon class="cls-3" points="145.36 128.53 141.6 121.47 137.86 128.53 135.43 128.53 141.59 116.9 147.79 128.53 145.36 128.53"/>
            <polygon class="cls-3" points="175.44 128.53 171.68 121.47 167.94 128.53 165.51 128.53 171.67 116.9 177.88 128.53 175.44 128.53"/>
            <path class="cls-3" d="M73.89,128.71a5.35,5.35,0,0,1-5-5.26V117.7H71v5.75a2.87,2.87,0,1,0,5.72,0V117.7H78.9v5.75A5.35,5.35,0,0,1,73.89,128.71Z"/>
            <polygon class="cls-3" points="89.34 128.53 89.34 119.89 85.73 119.89 85.73 117.74 95.09 117.74 95.09 119.89 91.49 119.89 91.49 128.53 89.34 128.53"/>
            <polygon class="cls-3" points="155.79 128.53 155.79 119.89 152.18 119.89 152.18 117.74 161.54 117.74 161.54 119.89 157.94 119.89 157.94 128.53 155.79 128.53"/>
            <polygon class="cls-3" points="120.43 124.19 120.43 128.53 118.29 128.53 118.29 116.9 123.76 125.63 129.23 116.9 129.23 128.53 127.09 128.53 127.09 124.2 123.76 129.15 120.43 124.19"/>
            <path class="cls-3" d="M106.28,128.68a5.53,5.53,0,1,1,5.53-5.52A5.53,5.53,0,0,1,106.28,128.68Zm0-8.9a3.38,3.38,0,1,0,3.38,3.38A3.38,3.38,0,0,0,106.28,119.78Z"/>
            <polygon class="cls-3" points="104.45 115.78 106.58 112.24 108.63 112.24 106.43 115.78 104.45 115.78"/>
          </g>
          <rect class="cls-6" x="51.13" y="46.5" width="126.75" height="104"/>
        </g>
      </g>
    </g>
  </g>
</svg>
