<?xml version="1.0" encoding="utf-8"?>
<!-- Generator: Adobe Illustrator 22.0.0, SVG Export Plug-In . SVG Version: 6.00 Build 0)  -->
<svg version="1.1" id="Layer_1" xmlns="http://www.w3.org/2000/svg" xmlns:xlink="http://www.w3.org/1999/xlink" x="0px" y="0px"
	 viewBox="0 0 834.1 834.1" style="enable-background:new 0 0 834.1 834.1;" xml:space="preserve">
<style type="text/css">
	.st0{fill:#F0EFE6;}
	.st1{fill:#1C2469;}
	.st2{fill:#FF5900;}
</style>
<title>main</title>
<g>
	<rect x="1.6" y="1.6" class="st0" width="831" height="831"/>
	<g>
		<path class="st1" d="M358.2,330c-2.2,9.4-2.2,19.1,0,28.5h5.7c-0.8-3.7-1.2-7.4-1.4-11.2c2.8,3.9,5.9,7.6,9.2,11.2h7
			c-4.3-4.5-8.2-9.4-11.7-14.5c3.2-4.9,6.7-9.6,10.5-14.1h-6.5c-3.1,3.6-5.9,7.4-8.5,11.4c0.2-3.8,0.7-7.6,1.6-11.4H358.2z"/>
		<path class="st1" d="M382.3,330c-2.2,9.4-2.2,19.1,0,28.5h5.7c-2.2-9.4-2.2-19.1,0-28.5H382.3z"/>
		<path class="st1" d="M402.8,330h-8.3c-2.2,9.4-2.2,19.1,0,28.5h8.3C419.8,358.6,419.8,329.9,402.8,330z M399.1,352.7
			c-0.8-5.7-0.8-11.5,0-17.2h2.8c10.4,0,10.3,17.2,0,17.2H399.1z"/>
		<path class="st1" d="M568.5,391.1l-26.7-5v32.4h-32.4v0c0,1.4,1,2.5,2.4,2.6l56.7,4.8L550,402.5L568.5,391.1z"/>
		<path class="st1" d="M304,386.1l-26.7,5l18.5,11.4L277.3,426l56.7-4.8c1.4-0.1,2.4-1.3,2.4-2.6v0H304V386.1z"/>
		<path class="st1" d="M373.6,398.4c4.9-0.4,8.5-4.6,8.1-9.5c-0.3-4.4-3.8-7.8-8.1-8.1c-4.9,0.4-8.5,4.6-8.1,9.5
			C365.8,394.6,369.2,398.1,373.6,398.4z"/>
		<path class="st1" d="M406.1,250.5c0.5-1.9-0.6-3.8-2.5-4.3c0,0,0,0-0.1,0c-3.2-0.8-6.5-0.8-9.7,0c-1.9,0.5-3,2.4-2.6,4.3
			c0,0,0,0,0,0.1c0.4,1.9,2.3,3,4.2,2.6c0.1,0,0.1,0,0.2,0c2-0.5,4.1-0.5,6.2,0h0.9C404.3,253,405.7,252,406.1,250.5z"/>
		<path class="st1" d="M448.9,250.5c0.5-1.9-0.6-3.8-2.5-4.3c0,0,0,0-0.1,0c-3.2-0.8-6.5-0.8-9.7,0c-1.9,0.5-3,2.4-2.6,4.3
			c0,0,0,0,0,0.1c0.4,1.9,2.3,3,4.2,2.6c0.1,0,0.1,0,0.2,0c2-0.5,4.1-0.5,6.2,0h0.9C447,253,448.4,252,448.9,250.5z"/>
		<path class="st1" d="M389.6,258.7c-1.2,0-2.1,0.9-2.1,2.1c0,1.1,0.9,2.1,2.1,2.1c1.2,0,2.1-0.9,2.1-2.1
			C391.7,259.6,390.7,258.7,389.6,258.7z"/>
		<path class="st1" d="M399.9,258.8C399.9,258.8,399.9,258.8,399.9,258.8c-1.1,0-2.1,0.9-2.1,2.1c0.2,1.2,1.3,2,2.5,1.8
			c0.9-0.1,1.7-0.9,1.8-1.8C402.1,259.7,401.1,258.8,399.9,258.8z"/>
		<path class="st1" d="M394.8,263.9c-1.1,0-2.1,0.9-2.1,2c0,0,0,0,0,0.1c0,1.2,0.9,2.1,2.1,2.2c1.2,0,2.1-0.9,2.2-2.1
			C397,264.9,396.1,263.9,394.8,263.9C394.9,263.9,394.9,263.9,394.8,263.9z"/>
		<path class="st1" d="M448.3,263C448.4,263,448.4,263,448.3,263c1.2,0,2.1-0.9,2.1-2.1c0-1.1-0.9-2.1-2.1-2.1c-1.1,0-2,0.9-2.1,2
			C446.3,262,447.2,263,448.3,263z"/>
		<path class="st1" d="M435.9,260.9c0,1.2,1,2.1,2.1,2.1c1.1,0,2.1-0.9,2.2-2c0-1.2-0.9-2.1-2.1-2.1
			C437,258.8,436,259.7,435.9,260.9z"/>
		<path class="st1" d="M441.1,266C441.1,266,441.1,266,441.1,266c0,1.2,0.9,2.2,2.1,2.2c1.2,0,2.1-0.9,2.2-2.1c0-1.1-1-2.1-2.1-2.1
			C442.1,264,441.1,264.8,441.1,266z"/>
		<path class="st1" d="M422.9,285.3h-7.9c0,2.2,1.8,3.3,3.9,3.3S422.9,287.3,422.9,285.3z"/>
		<path class="st1" d="M333.3,336.5c0-0.9,0.5-1.7,0.7-2.6c0.4-1.2-0.3-2.5-1.5-2.9c-1.2-0.4-2.5,0.3-2.8,1.5c0,0,0,0.1,0,0.1
			c-0.3,1-0.6,1.9-0.8,2.9c-0.3,1.2,0.4,2.4,1.6,2.7c0,0,0.1,0,0.1,0h0.5C332.1,338.3,333,337.5,333.3,336.5z"/>
		<path class="st1" d="M329.8,345.1c-1.2-0.1-2.2,0.8-2.3,2c0,0.1,0,0.1,0,0.2v3.3c0.1,1.2,1.1,2.2,2.3,2.2c1.3-0.1,2.2-1.1,2.2-2.4
			c0-0.5,0-1.2,0-1.9v-1.1c0.1-1.2-0.9-2.3-2.1-2.3C329.9,345.1,329.8,345.1,329.8,345.1z"/>
		<path class="st1" d="M508.8,350.6v2.7c-0.1,1.2,0.9,2.3,2.2,2.4c0.1,0,0.1,0,0.2,0c1.2,0,2.2-1,2.3-2.2c0-0.6,0-1.3,0-2.1v-0.9
			c0-1.3-1.1-2.3-2.3-2.3C509.8,348.3,508.8,349.3,508.8,350.6z"/>
		<path class="st1" d="M507.7,339.5c0.3,1,1.2,1.7,2.2,1.8h0.6c1.2-0.3,2-1.5,1.7-2.8c-0.3-1-0.5-2-0.8-2.9
			c-0.4-1.2-1.6-1.9-2.8-1.5c0,0,0,0-0.1,0c-1.2,0.4-1.9,1.7-1.5,2.9C507.2,337.7,507.5,338.6,507.7,339.5z"/>
		<polygon class="st1" points="333.2,306.6 333.3,302.3 330.4,304.8 327.6,303.6 328.2,307.3 326,310.5 329.2,311 331.1,315.8 
			332.5,310.8 336.7,309.9 		"/>
		<path class="st1" d="M540.7,333.1c0-29.8-25.7-46.8-32.3-50.6l-4.3-11.7c15.1,0,17.4-6.1,12-6.5c-5-0.1-10.1,0.1-15.1,0.7
			c-10,0.5-19.3,1.5-27.6,2.6h-1.3l-6.9,1.1c-12.2,1.9-24.3,4.8-36,8.8c-3.1-1.4-6.5-2.2-9.9-2.4c-4.9,1-9.7,2.9-13.9,5.6h27.5
			l-1.1-1c9.9-3.2,19.9-5.7,30.1-7.4c-1.4,4.1-3.6,8.1-6.2,11.5c-4.5,5.7-10.4,10.1-17.1,12.8c-5.5,0.8-11.1,1.2-16.7,1.4
			c-4,0-6.6,0.4-8.1,0.6c-0.1,0-0.1,0-0.2-0.1c-4.9,1.1-7.9,3.7-9.6,6c-1,1.8-1.6,3.9-1.6,6v5.9h-19.7l-0.5-0.8
			c-0.8-1.4-1.7-2.7-2.7-3.9c-0.9-1.2-1.9-2.3-2.9-3.4l0,0c0,0-0.1,0-0.1,0c-5.2-5.9-11.5-10.6-18.7-13.8c-1.9-0.9-3.8-1.6-5.8-2.1
			c1.9,0.8,3.7,1.8,5.4,2.9c3.7,2.5,7.1,5.4,10,8.7c0.2,0.2,0.3,0.4,0.4,0.6c-1.4-0.5-2.7-1-4.1-1.3c-4.4-1.1-8.9-1.6-13.3-1
			c4.4,0.3,8.6,1.6,12.5,3.4c1.9,0.9,3.8,1.9,5.6,3.1c1.5,1,3,2,4.4,3.1c0.6,1,1.2,1.9,1.6,2.9c0.3,0.6,0.5,1.1,0.8,1.5h-25.6
			c-6.5-0.2-12.6,3-16.2,8.4c-0.7,1-0.4,2.5,0.6,3.2c1,0.7,2.5,0.4,3.2-0.6c2.7-4.2,7.4-6.6,12.4-6.4h76.2
			c10.1-0.5,20.2,0.9,29.7,4.1c6.2,3.2,10.1,9.6,10,16.6c-0.1,4.9-1.4,9.8-3.9,14.1c-2.4,4.4-5.8,8.2-10,10.9
			c-3.1,1.9-6.8,2.8-10.4,2.3c0-0.1,0-0.2,0-0.4c0.7-2.6,1.2-5.2,1.5-7.8c0.4-3.8,0.4-7.6,0-11.4c-0.5,3.7-1.4,7.2-2.8,10.7
			c-0.9,2.3-1.9,4.6-3.1,6.8c-0.4,0.8-0.9,1.6-1.7,2.2l-0.7,0.4h-0.7h-1.5c-1.1-0.1-2.1-0.8-2.7-1.8c0.6-2.2,1.1-4.5,1.5-6.8
			l0.3-2.1c3.8-0.6,6.4-4.3,5.7-8.1c0-0.1,0-0.1,0-0.2c-0.4-4.6-4.1-7.2-8.5-8.8c-1.6-0.6-3-1.3-3-2.9c0-1.7,1.4-3.2,3.2-3.2
			c0,0,0,0,0.1,0c2-0.1,3.9,0.3,5.7,1.2c0.5-1.9,1-3.7,1.7-5.5c-2.2-0.9-4.5-1.3-6.8-1.2c-4.8,0.2-8.8,3.8-9.5,8.6
			c-0.4,5,3.7,7.1,8.2,8.7c1.6,0.6,2.9,1.3,3.2,3c0.1,0.6-0.1,1.2-0.4,1.7l-1.3,6.5c0,0,0,0,0,0c-0.1,0.5-0.3,1.5-0.3,1.5
			c-0.4,2.2-1,4.4-1.8,6.5h-88.6c-6.2-0.3-26-3.4-26-33.5c0-28.3,29.2-43.8,29.2-43.9l1.5-0.8l0.6-1.6c0,0,1.3-3.4,2.9-7.9l0,0
			c0,0,0,0,0,0l8.4,5c2.6,2.3,6.6,2,8.9-0.6c0.2-0.2,0.4-0.5,0.5-0.7c1.6-2.9,1.2-5.6-0.6-6.6l-13.4-7.5c0.1-0.2,0.1-0.4,0.2-0.6
			l0,0c1.5-4.1,2.8-7.6,3.2-8.7c2.5-6.6,12.7-8.7,19.1-9.2c-0.3,1.9-0.5,3.7-0.6,5.6c-1.9-1.3-4-2.1-6-2.7c1.7,1.3,3.3,2.9,4.4,4.5
			c1.1,1.7,1.6,3.5,1.2,4.8h0.3c0,0.1,0,0.2,0,0.3c-1.9-1.5-4-2.6-6.3-3.4c-0.6-0.2-1.2-0.3-1.9-0.4c-0.5-0.1-1-0.1-1.5,0h-0.9
			l1.2,0.3c0.5,0.1,0.9,0.2,1.3,0.5c0.5,0.2,1,0.5,1.5,0.9c2.5,1.8,4.6,4.2,6.1,6.9c1,1.6,1.9,3.3,2.7,5
			c3.9,13.7,13.7,24.9,26.7,30.8c1.5-2,3.8-4.2,7.2-5.7c-12-4-21.5-13.4-25.5-25.5c-4.9-2.2-7.1-7.9-4.9-12.8
			c0.7-1.5,1.8-2.9,3.1-3.9c1-11.8,6.9-22.4,16-29.5c-0.2,1.1-0.5,2.1-0.6,3.2c-0.5,3.5-0.1,7.4,1.7,10.2c-0.1-3.3,1.3-6.1,3-8.5
			c0.9-1.2,1.9-2.3,2.9-3.3c0.2-0.2,0.5-0.4,0.7-0.6c3,7.7,10.8,12.8,19.4,12c1.6-0.1,3.2-0.5,4.7-1c-1.9-0.1-3.8-0.5-5.6-1.2
			c-4.7-1.9-8.2-5.7-9.9-10.2c7.2,3.9,19,7.6,33.4,2.4c2.8,3.2,6.6,7,11.2,9.7c2.9,5.3,4.7,11.2,5.2,17.3c2.8,2.3,4,6.1,3,9.6h2.1
			l6.2-0.6c1.2-1.6,2.7-3,4.4-4.1c0.8-0.5,1.7-0.8,2.6-1.1h-0.1c-1-0.2-2-0.2-3,0c-1.4,0.3-2.8,0.8-4.1,1.6
			c-0.9,0.5-1.7,1.1-2.5,1.7c0-0.8,0-1.6,0-2.3c0.1-0.4,0.4-1,0.7-1.4c0.3-0.5,0.7-1.1,1.2-1.5c0.9-1,2.1-1.7,3.5-2.1
			c-1.4-0.5-3.1-0.5-4.7-0.1c-0.2,0.1-0.5,0.2-0.7,0.3c-0.1-1.7-0.2-3.5-0.5-5.2c6.4,0.6,16.2,2.8,18.6,9.2c0.6,1.5,1,2.8,1.5,4.1
			h0.3c2.8-0.5,5.6-0.8,8.4-1.1l-2.2-5.9c-5-13.1-23.2-14.7-28.9-15.1c-5.4-15.3-18-27.1-33.6-31.5c-0.8-6.2,3.2-12,9.3-13.4
			c1.3-0.2,2.7-0.2,4,0c-6.5-3.5-14.5-1.1-18,5.4c-1.1,2.1-1.7,4.5-1.6,6.9c-1.9-0.3-3.7-0.4-5.6-0.5c-1.8-4.4-0.2-9.4,3.7-12.1
			c0.9-0.6,1.9-1,3-1.3c-2.6-0.3-5.2,0.3-7.4,1.7c-3.8,2.6-5.6,7.3-4.5,11.8c-19.4,1.8-36,14.6-42.6,32.9c-5,0-24.4,1.5-29.4,15.1
			c-5.7,15.1-8.6,23.2-9.7,26.2c-6.6,3.9-32.3,20.8-32.3,50.6c0,18.7,7.3,30.2,16.7,36.3h-12.8V414h228.6v-44.4H524
			C533.4,363.5,540.7,352,540.7,333.1z M357.5,277.7c0.3-0.5,0.9-0.9,1.5-1.1c0.6-0.1,1.3,0,1.8,0.4c0.5,0.4,0.8,0.9,0.7,1.5
			c-0.9-0.6-1.6-0.8-2.3-0.6c-0.7,0.1-1.3,0.5-1.8,1.5C357.1,278.8,357.2,278.2,357.5,277.7z M343,404.3c-0.2,0-0.3,0-0.5,0
			c-3.1,0.1-6.2-0.6-9-2.1l0.7-6c2.4,1.7,5.2,2.5,8.1,2.3c1.6,0,2.9-1.3,3-2.9c0-1.6-1.4-2.3-3-2.9c-4.5-1.7-8.4-3.9-8.4-8.7
			c-0.2-4.6,3.4-8.5,8-8.7c0,0,0,0,0.1,0c2.4-0.1,4.8,0.3,7.1,1.2l-0.7,5.5c-1.8-0.9-3.8-1.4-5.8-1.3c-1.6,0-2.8,1.2-2.8,2.8
			c0,0.1,0,0.2,0,0.4c0,1.6,1.6,2.3,3.2,2.9c4.4,1.6,8.3,4.2,8.3,8.7C351.3,400.2,347.7,404.1,343,404.3z M373.6,404.5v-0.2
			c-19.3,0-19.6-28.6-0.7-29.3h1.5C393.2,375.7,393,404.5,373.6,404.5z M410.8,404.2l0-0.2c-19.3,0-19.3-29,0-29
			c1.9,0,3.8,0.3,5.6,1.1l-0.7,5.9c-1.5-0.9-3.3-1.3-5-1.3c-4.8,0.4-8.4,4.6-8.1,9.4c0.3,4.3,3.7,7.7,8.1,8.1c1.9,0,3.8-0.4,5.5-1.3
			l0.8,5.9C415.1,403.6,413,404.1,410.8,404.2z M431.3,404h-5.7v-28.3h5.7V404z M456.4,404h-14.7v-28.3H456v5.5h-8.6v5.7h7.5v5.7
			h-7.5v5.7h9L456.4,404z M424.8,316.2c-0.1,0.2-0.3,0.3-0.5,0.5h-4.4c-0.4-0.5-0.7-1-0.7-1.6c1.2,0.9,2.2,1.1,3.1,0.9
			c1-0.1,1.8-0.7,2.5-2C425.3,314.6,425.2,315.5,424.8,316.2z M465.3,358.8l6,2.9c0,0.7-0.6,1.3-0.9,1.9l-6.3-3
			C464.6,359.9,465,359.4,465.3,358.8z M470.3,344l4.9,2.4c0,0.8-0.1,1.6-0.4,2.4v0.4l-5-2.5C470.1,345.6,470.2,344.9,470.3,344z
			 M470.2,340.9c0-0.9,0-1.8,0-2.6l1.1,0.6l1.4,0.6c1.4,0.8,2.4,2.2,2.6,3.8L470.2,340.9z M474.2,352l-0.7,2.3l-5-2.4
			c0.3-0.8,0.6-1.5,0.8-2.2L474.2,352z M472.5,357.1l-0.6,2l-5.5-2.6c0.5-0.7,0.8-1.2,1.1-1.8L472.5,357.1z M462.5,362.9l6.2,2.9
			c-0.3,0.3-0.7,0.6-1.1,0.8h-2.9C463.5,365.7,462.7,364.4,462.5,362.9L462.5,362.9z M483.2,381.3h-6.9v22.8h-5.7v-22.8h-7.1v-5.5
			h19.7V381.3z M482.9,368.1c-0.7,0.5-1.5,0.6-2.4,0.5c-1.3-0.3-2.3-1.4-2.6-2.7c-0.3-2.5,0.1-5,0.9-7.4c2,1.2,3.8,2.9,5,5
			C484.8,365.1,484.4,367.1,482.9,368.1z M487.1,366.7c0.4-1.7,0.2-3.5-0.8-5c-1.3-2.4-2.9-4.7-4.7-6.9c-0.7-0.5,0.1-3.2,0.2-3.5
			c4.2,2.5,7.4,6.5,8.7,11.2c0.6,1.7-0.2,3.6-1.9,4.3C488.1,366.8,487.6,366.8,487.1,366.7z M504.2,391.3v12.9h-5.6v-12.9l-9.9-15.5
			l6.9-0.2l5.8,10l5.8-10h7L504.2,391.3z M506.2,366.3h-13.5c0.9-1.5,1.1-3.4,0.5-5c-1.4-4.8-4.3-9-8.2-12c-1.6-0.9-3.3-1.6-5-2.2
			c1.1-4.9-1.3-9.9-5.7-12.2l-1.1-0.4c-1.4-0.7-2.9-1.2-4.5-1.4c-1.4-3.6-3.8-6.8-6.9-9.2h29.5c5.1-0.3,10,2.3,12.7,6.6
			c0.4,0.6,1.1,1,1.9,1c0.5,0,0.9-0.1,1.3-0.4c1-0.7,1.3-2.1,0.6-3.2c-3.6-5.4-9.7-8.6-16.2-8.4h-23.8c0.3-0.7,0.6-1.5,1.1-2.3
			c2-4,4.4-7.8,7.2-11.3c3-3.5,6.4-6.8,10-9.6c1.6-1.3,3.3-2.5,5-3.6c-2,0.8-3.9,1.7-5.8,2.7c-4.2,2.3-8.1,5-11.7,8.1
			c-1.5,1.3-2.9,2.6-4.3,4c0.2-0.6,0.5-1.2,0.7-1.7c1.9-3.9,4.6-7.4,7.9-10.4c-3.8,2.3-7.3,5.4-10,9.1c-1.4,1.8-2.6,3.8-3.6,6
			c-0.9,1.9-1.7,3.8-2.3,6c-0.4,0.6-0.8,1.1-1.2,1.7l-0.9,1.4h-7.4c-8.2-1.9-16.7-2.9-25.1-2.8c0.3-0.6,0.4-1.3,0.4-2
			c0-3-2.4-5.4-5.4-5.4c-3,0-5.4,2.4-5.4,5.4c0,0.7,0.1,1.3,0.4,2h-6.7v-5.9c0-2,1.5-3.6,3.5-3.9c1.1,0,4.7-0.4,8.2-0.6
			c6.5,0,13-0.6,19.3-2c8.2-3.2,15.3-8.6,20.7-15.5c2.8-3.6,5.2-7.7,6.9-12c0-0.3,0.9-3.1,1.3-4.3s0.5-1.4,0.9-2.1
			c5-0.8,10.8-1.5,16.8-2c1.5,0.3,2.8,0.6,4.1,0.8l-11.9,6.7c-1.8,1-2.2,3.7-0.6,6.6c1.9,2.9,5.8,3.8,8.7,1.9
			c0.3-0.2,0.5-0.3,0.7-0.5l8.5-5.2c2.1,5.6,2.9,7.9,2.9,7.9l0.6,1.6l1.5,0.8c0.3,0,29.2,15.5,29.2,43.9
			C532,363,511.9,366.1,506.2,366.3z M488.6,278.4c-0.9-0.6-1.6-0.8-2.3-0.6c-0.7,0.1-1.3,0.5-1.8,1.5c-0.2-0.5-0.2-1.1,0.1-1.7
			c0.3-0.5,0.9-0.9,1.5-1.1c0.6-0.1,1.3,0,1.8,0.4C488.3,277.3,488.6,277.9,488.6,278.4z"/>
		<path class="st1" d="M429.5,353.2c-0.2,0-0.3,0-0.5,0c-3,0.1-6-0.8-8.4-2.6c0,2,0,4,0,6c2.7,1.3,4.9,1.9,7.9,1.9l2.7-6.5
			C430.8,352.6,430.2,353,429.5,353.2z"/>
		<path class="st2" d="M425.1,258.3c0-5.7-3.5-10-6.1-9.2c-1.6,0.5-2.9,4.7-3.6,7.2l5,3.7l-5.4-1.7c0,0-4.6-1-5.8,0
			c-3.1,3.1,3.6,8,8,8c4.3,0.1,7.9-3.4,8-7.7C425.1,258.5,425.1,258.4,425.1,258.3z"/>
	</g>
</g>
</svg>
