<?xml version="1.0" encoding="utf-8"?>
<!-- Generator: Adobe Illustrator 22.0.0, SVG Export Plug-In . SVG Version: 6.00 Build 0)  -->
<svg version="1.1" id="Layer_1" xmlns="http://www.w3.org/2000/svg" xmlns:xlink="http://www.w3.org/1999/xlink" x="0px" y="0px"
	 viewBox="0 0 834.1 834.1" style="enable-background:new 0 0 834.1 834.1;" xml:space="preserve">
<style type="text/css">
	.st0{fill:#F0EFE6;}
	.st1{fill:#302F49;}
	.st2{fill:#FF5900;}
</style>
<title>main</title>
<g>
	<rect x="0.1" y="0.1" class="st0" width="834" height="834"/>
	<g>
		<path class="st1" d="M360.1,332.8c-2.1,9.1-2.1,18.5,0,27.6h5.5c-0.8-3.6-1.2-7.2-1.4-10.8c2.7,3.8,5.7,7.4,8.9,10.8h6.8
			c-4.2-4.4-7.9-9.1-11.3-14c3.1-4.7,6.5-9.3,10.2-13.6h-6.3c-3,3.5-5.7,7.2-8.2,11c0.2-3.7,0.7-7.4,1.5-11L360.1,332.8L360.1,332.8
			z"/>
		<path class="st1" d="M383.4,332.8c-2.1,9.1-2.1,18.5,0,27.6h5.5c-2.1-9.1-2.1-18.5,0-27.6H383.4z"/>
		<path class="st1" d="M403.3,332.8h-8c-2.1,9.1-2.1,18.5,0,27.6h8C419.7,360.5,419.7,332.7,403.3,332.8z M399.7,354.8
			c-0.8-5.5-0.8-11.1,0-16.6h2.7c10.1,0,10,16.6,0,16.6H399.7z"/>
		<path class="st1" d="M563.6,391.9l-25.8-4.8v31.4h-31.4l0,0c0,1.4,1,2.4,2.3,2.5l54.9,4.6L545.7,403L563.6,391.9z"/>
		<path class="st1" d="M307.6,387.1l-25.8,4.8l17.9,11l-17.9,22.7l54.9-4.6c1.4-0.1,2.3-1.3,2.3-2.5l0,0h-31.4V387.1z"/>
		<path class="st1" d="M375,399c4.7-0.4,8.2-4.5,7.8-9.2c-0.3-4.3-3.7-7.5-7.8-7.8c-4.7,0.4-8.2,4.5-7.8,9.2
			C367.5,395.3,370.7,398.7,375,399z"/>
		<path class="st1" d="M406.5,255.9c0.5-1.8-0.6-3.7-2.4-4.2c0,0,0,0-0.1,0c-3.1-0.8-6.3-0.8-9.4,0c-1.8,0.5-2.9,2.3-2.5,4.2
			c0,0,0,0,0,0.1c0.4,1.8,2.2,2.9,4.1,2.5c0.1,0,0.1,0,0.2,0c1.9-0.5,4-0.5,6,0h0.9C404.7,258.3,406.1,257.3,406.5,255.9z"/>
		<path class="st1" d="M447.9,255.9c0.5-1.8-0.6-3.7-2.4-4.2c0,0,0,0-0.1,0c-3.1-0.8-6.3-0.8-9.4,0c-1.8,0.5-2.9,2.3-2.5,4.2
			c0,0,0,0,0,0.1c0.4,1.8,2.2,2.9,4.1,2.5c0.1,0,0.1,0,0.2,0c1.9-0.5,4-0.5,6,0h0.9C446,258.3,447.4,257.3,447.9,255.9z"/>
		<path class="st1" d="M390.5,263.8c-1.2,0-2,0.9-2,2c0,1.1,0.9,2,2,2c1.2,0,2-0.9,2-2C392.5,264.7,391.6,263.8,390.5,263.8z"/>
		<path class="st1" d="M400.5,263.9L400.5,263.9c-1.1,0-2,0.9-2,2c0.2,1.2,1.3,1.9,2.4,1.7c0.9-0.1,1.6-0.9,1.7-1.7
			C402.6,264.8,401.6,263.9,400.5,263.9z"/>
		<path class="st1" d="M395.5,268.8c-1.1,0-2,0.9-2,1.9c0,0,0,0,0,0.1c0,1.2,0.9,2,2,2.1c1.2,0,2-0.9,2.1-2
			C397.6,269.8,396.8,268.8,395.5,268.8C395.6,268.8,395.6,268.8,395.5,268.8z"/>
		<path class="st1" d="M447.3,268C447.4,268,447.4,268,447.3,268c1.2,0,2-0.9,2-2c0-1.1-0.9-2-2-2c-1.1,0-1.9,0.9-2,1.9
			C445.4,267,446.2,268,447.3,268z"/>
		<path class="st1" d="M435.3,265.9c0,1.2,1,2,2,2s2-0.9,2.1-1.9c0-1.2-0.9-2-2-2C436.4,263.9,435.4,264.8,435.3,265.9z"/>
		<path class="st1" d="M440.3,270.9L440.3,270.9c0,1.2,0.9,2.1,2,2.1c1.2,0,2-0.9,2.1-2c0-1.1-1-2-2-2
			C441.3,268.9,440.3,269.7,440.3,270.9z"/>
		<path class="st1" d="M422.7,289.6h-7.6c0,2.1,1.7,3.2,3.8,3.2C420.9,292.7,422.7,291.5,422.7,289.6z"/>
		<path class="st1" d="M336,339.1c0-0.9,0.5-1.6,0.7-2.5c0.4-1.2-0.3-2.4-1.5-2.8c-1.2-0.4-2.4,0.3-2.7,1.5v0.1
			c-0.3,1-0.6,1.8-0.8,2.8c-0.3,1.2,0.4,2.3,1.5,2.6h0.1h0.5C334.8,340.8,335.7,340.1,336,339.1z"/>
		<path class="st1" d="M332.6,347.4c-1.2-0.1-2.1,0.8-2.2,1.9c0,0.1,0,0.1,0,0.2v3.2c0.1,1.2,1.1,2.1,2.2,2.1
			c1.3-0.1,2.1-1.1,2.1-2.3c0-0.5,0-1.2,0-1.8v-1.1C334.8,348.5,333.9,347.4,332.6,347.4C332.7,347.4,332.6,347.4,332.6,347.4z"/>
		<path class="st1" d="M505.8,352.7v2.6c-0.1,1.2,0.9,2.2,2.1,2.3c0.1,0,0.1,0,0.2,0c1.2,0,2.1-1,2.2-2.1c0-0.6,0-1.3,0-2v-0.9
			c0-1.3-1.1-2.2-2.2-2.2C506.8,350.5,505.8,351.5,505.8,352.7z"/>
		<path class="st1" d="M504.8,342c0.3,1,1.2,1.6,2.1,1.7h0.6c1.2-0.3,1.9-1.5,1.6-2.7c-0.3-1-0.5-1.9-0.8-2.8
			c-0.4-1.2-1.5-1.8-2.7-1.5c0,0,0,0-0.1,0c-1.2,0.4-1.8,1.6-1.5,2.8C504.3,340.3,504.6,341.1,504.8,342z"/>
		<polygon class="st1" points="335.9,310.2 336,306 333.2,308.4 330.5,307.3 331.1,310.8 328.9,313.9 332,314.4 333.9,319.1 
			335.2,314.2 339.3,313.4 		"/>
		<path class="st1" d="M536.7,335.8c0-28.8-24.9-45.3-31.3-49l-4.2-11.3c14.6,0,16.8-5.9,11.6-6.3c-4.8-0.1-9.8,0.1-14.6,0.7
			c-9.7,0.5-18.7,1.5-26.7,2.5h-1.3l-6.7,1.1c-11.8,1.8-23.5,4.6-34.8,8.5c-3-1.4-6.3-2.1-9.6-2.3c-4.7,1-9.4,2.8-13.5,5.4h26.6
			l-1.1-1c9.6-3.1,19.3-5.5,29.1-7.2c-1.4,4-3.5,7.8-6,11.1c-4.4,5.5-10.1,9.8-16.5,12.4c-5.3,0.8-10.7,1.2-16.2,1.4
			c-3.9,0-6.4,0.4-7.8,0.6c-0.1,0-0.1,0-0.2-0.1c-4.7,1.1-7.6,3.6-9.3,5.8c-1,1.7-1.5,3.8-1.5,5.8v5.7h-19.1l-0.5-0.8
			c-0.8-1.4-1.6-2.6-2.6-3.8c-0.9-1.2-1.8-2.2-2.8-3.3l0,0h-0.1c-5-5.7-11.1-10.3-18.1-13.4c-1.8-0.9-3.7-1.5-5.6-2
			c1.8,0.8,3.6,1.7,5.2,2.8c3.6,2.4,6.9,5.2,9.7,8.4c0.2,0.2,0.3,0.4,0.4,0.6c-1.4-0.5-2.6-1-4-1.3c-4.3-1.1-8.6-1.5-12.9-1
			c4.3,0.3,8.3,1.5,12.1,3.3c1.8,0.9,3.7,1.8,5.4,3c1.5,1,2.9,1.9,4.3,3c0.6,1,1.2,1.8,1.5,2.8c0.3,0.6,0.5,1.1,0.8,1.5h-24.8
			c-6.3-0.2-12.2,2.9-15.7,8.1c-0.7,1-0.4,2.4,0.6,3.1s2.4,0.4,3.1-0.6c2.6-4.1,7.2-6.4,12-6.2h73.7c9.8-0.5,19.5,0.9,28.7,4
			c6,3.1,9.8,9.3,9.7,16.1c-0.1,4.7-1.4,9.5-3.8,13.6c-2.3,4.3-5.6,7.9-9.7,10.5c-3,1.8-6.6,2.7-10.1,2.2c0-0.1,0-0.2,0-0.4
			c0.7-2.5,1.2-5,1.5-7.5c0.4-3.7,0.4-7.4,0-11c-0.5,3.6-1.4,7-2.7,10.4c-0.9,2.2-1.8,4.5-3,6.6c-0.4,0.8-0.9,1.5-1.6,2.1l-0.7,0.4
			h-0.7h-1.5c-1.1-0.1-2-0.8-2.6-1.7c0.6-2.1,1.1-4.4,1.5-6.6l0.3-2c3.7-0.6,6.2-4.2,5.5-7.8c0-0.1,0-0.1,0-0.2
			c-0.4-4.5-4-7-8.2-8.5c-1.5-0.6-2.9-1.3-2.9-2.8c0-1.6,1.4-3.1,3.1-3.1c0,0,0,0,0.1,0c1.9-0.1,3.8,0.3,5.5,1.2
			c0.5-1.8,1-3.6,1.6-5.3c-2.1-0.9-4.4-1.3-6.6-1.2c-4.6,0.2-8.5,3.7-9.2,8.3c-0.4,4.8,3.6,6.9,7.9,8.4c1.5,0.6,2.8,1.3,3.1,2.9
			c0.1,0.6-0.1,1.2-0.4,1.6l-1.3,6.3l0,0c-0.1,0.5-0.3,1.5-0.3,1.5c-0.4,2.1-1,4.3-1.7,6.3h-85.7c-6-0.3-25.2-3.3-25.2-32.4
			c0-27.4,28.3-42.4,28.3-42.5l1.5-0.8l0.6-1.5c0,0,1.3-3.3,2.8-7.6l0,0l0,0l8.1,4.8c2.5,2.2,6.4,1.9,8.6-0.6
			c0.2-0.2,0.4-0.5,0.5-0.7c1.5-2.8,1.2-5.4-0.6-6.4l-13-7.3c0.1-0.2,0.1-0.4,0.2-0.6l0,0c1.5-4,2.7-7.4,3.1-8.4
			c2.4-6.4,12.3-8.4,18.5-8.9c-0.3,1.8-0.5,3.6-0.6,5.4c-1.8-1.3-3.9-2-5.8-2.6c1.6,1.3,3.2,2.8,4.3,4.4c1.1,1.6,1.5,3.4,1.2,4.6
			h0.3c0,0.1,0,0.2,0,0.3c-1.8-1.5-3.9-2.5-6.1-3.3c-0.6-0.2-1.2-0.3-1.8-0.4c-0.5-0.1-1-0.1-1.5,0H364l1.2,0.3
			c0.5,0.1,0.9,0.2,1.3,0.5c0.5,0.2,1,0.5,1.5,0.9c2.4,1.7,4.5,4.1,5.9,6.7c1,1.5,1.8,3.2,2.6,4.8c3.8,13.3,13.3,24.1,25.8,29.8
			c1.5-1.9,3.7-4.1,7-5.5c-11.6-3.9-20.8-13-24.7-24.7c-4.7-2.1-6.9-7.6-4.7-12.4c0.7-1.5,1.7-2.8,3-3.8c1-11.4,6.7-21.7,15.5-28.5
			c-0.2,1.1-0.5,2-0.6,3.1c-0.5,3.4-0.1,7.2,1.6,9.9c-0.1-3.2,1.3-5.9,2.9-8.2c0.9-1.2,1.8-2.2,2.8-3.2c0.2-0.2,0.5-0.4,0.7-0.6
			c2.9,7.5,10.5,12.4,18.8,11.6c1.5-0.1,3.1-0.5,4.5-1c-1.8-0.1-3.7-0.5-5.4-1.2c-4.5-1.8-7.9-5.5-9.6-9.9c7,3.8,18.4,7.4,32.3,2.3
			c2.7,3.1,6.4,6.8,10.8,9.4c2.8,5.1,4.5,10.8,5,16.7c2.7,2.2,3.9,5.9,2.9,9.3h2l6-0.6c1.2-1.5,2.6-2.9,4.3-4
			c0.8-0.5,1.6-0.8,2.5-1.1h-0.1c-1-0.2-1.9-0.2-2.9,0c-1.4,0.3-2.7,0.8-4,1.5c-0.9,0.5-1.6,1.1-2.4,1.6c0-0.8,0-1.5,0-2.2
			c0.1-0.4,0.4-1,0.7-1.4c0.3-0.5,0.7-1.1,1.2-1.5c0.9-1,2-1.6,3.4-2c-1.4-0.5-3-0.5-4.5-0.1c-0.2,0.1-0.5,0.2-0.7,0.3
			c-0.1-1.6-0.2-3.4-0.5-5c6.2,0.6,15.7,2.7,18,8.9c0.6,1.5,1,2.7,1.5,4h0.3c2.7-0.5,5.4-0.8,8.1-1.1l-2.1-5.7
			c-4.8-12.7-22.5-14.2-28-14.6c-5.2-14.8-17.4-26.2-32.5-30.5c-0.8-6,3.1-11.6,9-13c1.3-0.2,2.6-0.2,3.9,0
			c-6.3-3.4-14-1.1-17.4,5.2c-1.1,2-1.6,4.4-1.5,6.7c-1.8-0.3-3.6-0.4-5.4-0.5c-1.7-4.3-0.2-9.1,3.6-11.7c0.9-0.6,1.8-1,2.9-1.3
			c-2.5-0.3-5,0.3-7.2,1.6c-3.7,2.5-5.4,7.1-4.4,11.4c-18.8,1.7-34.8,14.1-41.2,31.8c-4.8,0-23.6,1.5-28.5,14.6
			c-5.5,14.6-8.3,22.5-9.4,25.4c-6.4,3.8-31.3,20.1-31.3,49c0,18.1,7.1,29.2,16.2,35.1h-12.4v42.9h221.2v-43h-12.9
			C529.6,365.2,536.7,354.1,536.7,335.8z M359.4,282.2c0.3-0.5,0.9-0.9,1.5-1.1c0.6-0.1,1.3,0,1.7,0.4c0.5,0.4,0.8,0.9,0.7,1.5
			c-0.9-0.6-1.5-0.8-2.2-0.6c-0.7,0.1-1.3,0.5-1.7,1.5C359,283.3,359.1,282.7,359.4,282.2z M345.4,404.7c-0.2,0-0.3,0-0.5,0
			c-3,0.1-6-0.6-8.7-2l0.7-5.8c2.3,1.6,5,2.4,7.8,2.2c1.5,0,2.8-1.3,2.9-2.8c0-1.5-1.4-2.2-2.9-2.8c-4.4-1.6-8.1-3.8-8.1-8.4
			c-0.2-4.5,3.3-8.2,7.7-8.4c0,0,0,0,0.1,0c2.3-0.1,4.6,0.3,6.9,1.2l-0.7,5.3c-1.7-0.9-3.7-1.4-5.6-1.3c-1.5,0-2.7,1.2-2.7,2.7
			c0,0.1,0,0.2,0,0.4c0,1.5,1.5,2.2,3.1,2.8c4.3,1.5,8,4.1,8,8.4C353.4,400.7,349.9,404.5,345.4,404.7z M375,404.9v-0.2
			c-18.7,0-19-27.7-0.7-28.4h1.5C394,377,393.8,404.9,375,404.9z M411,404.6v-0.2c-18.7,0-18.7-28.1,0-28.1c1.8,0,3.7,0.3,5.4,1.1
			l-0.7,5.7c-1.5-0.9-3.2-1.3-4.8-1.3c-4.6,0.4-8.1,4.5-7.8,9.1c0.3,4.2,3.6,7.5,7.8,7.8c1.8,0,3.7-0.4,5.3-1.3l0.8,5.7
			C415.2,404,413.1,404.5,411,404.6z M430.8,404.4h-5.5V377h5.5V404.4z M455.1,404.4h-14.2V377h13.8v5.3h-8.3v5.5h7.3v5.5h-7.3v5.5
			h8.7V404.4z M424.6,319.5c-0.1,0.2-0.3,0.3-0.5,0.5h-4.3c-0.4-0.5-0.7-1-0.7-1.5c1.2,0.9,2.1,1.1,3,0.9c1-0.1,1.7-0.7,2.4-1.9
			C425,317.9,424.9,318.8,424.6,319.5z M463.7,360.7l5.8,2.8c0,0.7-0.6,1.3-0.9,1.8l-6.1-2.9C463.1,361.7,463.5,361.3,463.7,360.7z
			 M468.6,346.4l4.7,2.3c0,0.8-0.1,1.5-0.4,2.3v0.4l-4.8-2.4C468.4,347.9,468.5,347.2,468.6,346.4z M468.5,343.4c0-0.9,0-1.7,0-2.5
			l1.1,0.6l1.4,0.6c1.4,0.8,2.3,2.1,2.5,3.7L468.5,343.4z M472.4,354.1l-0.7,2.2l-4.8-2.3c0.3-0.8,0.6-1.5,0.8-2.1L472.4,354.1z
			 M470.7,359l-0.6,1.9l-5.3-2.5c0.5-0.7,0.8-1.2,1.1-1.7L470.7,359z M461,364.6l6,2.8c-0.3,0.3-0.7,0.6-1.1,0.8h-2.8
			C462,367.4,461.2,366.1,461,364.6L461,364.6z M481.1,382.5h-6.7v22.1h-5.5v-22.1H462v-5.3h19.1V382.5z M480.8,369.7
			c-0.7,0.5-1.5,0.6-2.3,0.5c-1.3-0.3-2.2-1.4-2.5-2.6c-0.3-2.4,0.1-4.8,0.9-7.2c1.9,1.2,3.7,2.8,4.8,4.8
			C482.6,366.8,482.2,368.7,480.8,369.7z M484.8,368.3c0.4-1.6,0.2-3.4-0.8-4.8c-1.3-2.3-2.8-4.5-4.5-6.7c-0.7-0.5,0.1-3.1,0.2-3.4
			c4.1,2.4,7.2,6.3,8.4,10.8c0.6,1.6-0.2,3.5-1.8,4.2C485.8,368.4,485.3,368.4,484.8,368.3z M501.4,392.1v12.5H496v-12.5l-9.6-15
			l6.7-0.2l5.6,9.7l5.6-9.7h6.8L501.4,392.1z M503.3,367.9h-13.1c0.9-1.5,1.1-3.3,0.5-4.8c-1.4-4.6-4.2-8.7-7.9-11.6
			c-1.5-0.9-3.2-1.5-4.8-2.1c1.1-4.7-1.3-9.6-5.5-11.8l-1.1-0.4c-1.4-0.7-2.8-1.2-4.4-1.4c-1.4-3.5-3.7-6.6-6.7-8.9h28.5
			c4.9-0.3,9.7,2.2,12.3,6.4c0.4,0.6,1.1,1,1.8,1c0.5,0,0.9-0.1,1.3-0.4c1-0.7,1.3-2,0.6-3.1c-3.5-5.2-9.4-8.3-15.7-8.1h-23
			c0.3-0.7,0.6-1.5,1.1-2.2c1.9-3.9,4.3-7.5,7-10.9c2.9-3.4,6.2-6.6,9.7-9.3c1.5-1.3,3.2-2.4,4.8-3.5c-1.9,0.8-3.8,1.6-5.6,2.6
			c-4.1,2.2-7.8,4.8-11.3,7.8c-1.5,1.3-2.8,2.5-4.2,3.9c0.2-0.6,0.5-1.2,0.7-1.6c1.8-3.8,4.5-7.2,7.6-10.1c-3.7,2.2-7.1,5.2-9.7,8.8
			c-1.4,1.7-2.5,3.7-3.5,5.8c-0.9,1.8-1.6,3.7-2.2,5.8c-0.4,0.6-0.8,1.1-1.2,1.6l-0.9,1.4h-7.2c-7.9-1.8-16.2-2.8-24.3-2.7
			c0.3-0.6,0.4-1.3,0.4-1.9c0-2.9-2.3-5.2-5.2-5.2s-5.2,2.3-5.2,5.2c0,0.7,0.1,1.3,0.4,1.9h-6.5v-5.7c0-1.9,1.5-3.5,3.4-3.8
			c1.1,0,4.5-0.4,7.9-0.6c6.3,0,12.6-0.6,18.7-1.9c7.9-3.1,14.8-8.3,20-15c2.7-3.5,5-7.5,6.7-11.6c0-0.3,0.9-3,1.3-4.2
			c0.4-1.2,0.5-1.4,0.9-2c4.8-0.8,10.5-1.5,16.3-1.9c1.5,0.3,2.7,0.6,4,0.8l-11.5,6.5c-1.7,1-2.1,3.6-0.6,6.4
			c1.8,2.8,5.6,3.7,8.4,1.8c0.3-0.2,0.5-0.3,0.7-0.5l8.2-5c2,5.4,2.8,7.6,2.8,7.6l0.6,1.5l1.5,0.8c0.3,0,28.3,15,28.3,42.5
			C528.3,364.7,508.8,367.7,503.3,367.9z M486.3,282.9c-0.9-0.6-1.5-0.8-2.2-0.6c-0.7,0.1-1.3,0.5-1.7,1.5c-0.2-0.5-0.2-1.1,0.1-1.6
			c0.3-0.5,0.9-0.9,1.5-1.1c0.6-0.1,1.3,0,1.7,0.4C486,281.8,486.3,282.4,486.3,282.9z"/>
		<path class="st1" d="M429.1,355.3c-0.2,0-0.3,0-0.5,0c-2.9,0.1-5.8-0.8-8.1-2.5c0,1.9,0,3.9,0,5.8c2.6,1.3,4.7,1.8,7.6,1.8
			l2.6-6.3C430.4,354.7,429.8,355.1,429.1,355.3z"/>
		<path class="st2" d="M424.8,263.4c0-5.5-3.4-9.7-5.9-8.9c-1.5,0.5-2.8,4.5-3.5,7l4.8,3.6l-5.2-1.6c0,0-4.5-1-5.6,0
			c-3,3,3.5,7.7,7.7,7.7c4.2,0.1,7.6-3.3,7.7-7.5C424.8,263.6,424.8,263.5,424.8,263.4z"/>
	</g>
</g>
</svg>
