<svg xmlns="http://www.w3.org/2000/svg" viewBox="0 0 400 400">
  <defs>
    <style>
      .cls-1 {
        isolation: isolate;
      }

      .cls-2 {
        fill: #b4ffea;
      }

      .cls-3 {
        opacity: 0.08;
        mix-blend-mode: multiply;
      }

      .cls-4 {
        fill: #ffe262;
      }

      .cls-5 {
        fill: #ff4332;
      }

      .cls-6 {
        fill: #221b15;
      }
    </style>
  </defs>
  <title>main</title>
  <g class="cls-1">
    <g id="Layer_2" data-name="Layer 2">
      <g id="Layer_1-2" data-name="Layer 1">
        <rect class="cls-2" width="400" height="400"/>
        <g>
          <g class="cls-3">
            <path d="M200.2,201.34c1.34,0,2.47,4.91,3.79,5a46,46,0,0,1,41.95,45.77h11.73a57.67,57.67,0,0,0-115.34,0h11.73a46,46,0,0,1,42.15-45.79C197.46,206.25,198.92,201.34,200.2,201.34Z"/>
            <path d="M200,194.47a57.73,57.73,0,0,1,57.67,57.67H269.4a69.4,69.4,0,1,0-138.8,0h11.73A57.73,57.73,0,0,1,200,194.47Z"/>
            <path d="M167,252.15h0a33.07,33.07,0,0,1,20-30.34l3.87-1.69,9.13-15.6L208.85,220l4,1.69A33,33,0,0,1,233,252.14h14.08a47.07,47.07,0,0,0-28.44-43.25L200,176.48,181,209a47.15,47.15,0,0,0-28.08,43.1H167Z"/>
          </g>
          <g>
            <path class="cls-4" d="M200.2,187c1.34,0,2.47,4.92,3.79,5a46,46,0,0,1,41.95,45.77h11.73a57.67,57.67,0,0,0-115.34,0h11.73A46,46,0,0,1,196.21,192C197.46,191.93,198.92,187,200.2,187Z"/>
            <path class="cls-5" d="M200,180.15a57.73,57.73,0,0,1,57.67,57.67H269.4a69.4,69.4,0,0,0-138.8,0h11.73A57.73,57.73,0,0,1,200,180.15Z"/>
            <path class="cls-6" d="M167,237.83h0a33.07,33.07,0,0,1,20-30.34l3.87-1.68,9.13-15.61,8.93,15.49,4,1.69A33,33,0,0,1,233,237.82h14.08a47.06,47.06,0,0,0-28.44-43.24L200,162.17l-19,32.55a47.15,47.15,0,0,0-28.08,43.1H167Z"/>
          </g>
        </g>
      </g>
    </g>
  </g>
</svg>
