<svg xmlns="http://www.w3.org/2000/svg" viewBox="0 0 20 16.57">
  <defs>
    <style>
      .cls-1, .cls-4 {
        fill: #2e2e2e;
      }

      .cls-1 {
        opacity: 0.45;
      }

      .cls-2 {
        fill: #fff;
      }

      .cls-3 {
        fill: #83ffda;
      }

      .cls-4 {
        opacity: 0.25;
      }
    </style>
  </defs>
  <title>ballon</title>
  <g id="Layer_2" data-name="Layer 2">
    <g id="scene">
      <g id="ballon">
        <ellipse id="shadow" class="cls-1" cx="11.86" cy="13.89" rx="8.21" ry="2.44" transform="translate(-1.86 1.83) rotate(-8.19)"/>
        <circle class="cls-2" cx="7.86" cy="7.86" r="7.84"/>
        <g id="body">
          <path class="cls-3" d="M15.68,7.05a7.2,7.2,0,0,1,0,.81,7,7,0,0,1,0,.8c0,.22,0,.45-.09.66s-.1.46-.17.69a6.4,6.4,0,0,1-.23.66,6.36,6.36,0,0,1-.28.65c-.09.17-.17.34-.27.5l-.13.22-.31.44,0,0c-.12.17-.26.32-.39.48l0,0a17.12,17.12,0,0,1,0-10.36c.15.17.3.35.44.54s.25.35.37.54l0,.06c.11.18.21.38.31.57s.2.43.28.65a5.84,5.84,0,0,1,.23.67,7,7,0,0,1,.17.69C15.63,6.61,15.66,6.83,15.68,7.05Z"/>
          <path class="cls-2" d="M12.23,1.33a6.75,6.75,0,0,1,1.52,1.35,17.12,17.12,0,0,0,0,10.36,7.6,7.6,0,0,1-1.53,1.35A19,19,0,0,1,12.23,1.33Z"/>
          <path class="cls-3" d="M12.23,1.32h0a19,19,0,0,0,0,13.06l-.08,0a6.79,6.79,0,0,1-1.18.65c-.23.09-.46.18-.69.25a5.71,5.71,0,0,1-.71.19A21.92,21.92,0,0,1,9.56.19c.24,0,.48.12.71.19A7.88,7.88,0,0,1,12.23,1.32Z"/>
          <path class="cls-2" d="M7.86,0a7.38,7.38,0,0,1,1.7.19,21.92,21.92,0,0,0,0,15.33,7.38,7.38,0,0,1-1.7.19H7.61A23.78,23.78,0,0,1,7.62,0Z"/>
          <path class="cls-3" d="M6.62.11a6.64,6.64,0,0,1,1-.1,23.78,23.78,0,0,0,0,15.69,8.09,8.09,0,0,1-1-.09,5.25,5.25,0,0,1-.71-.15,4.88,4.88,0,0,1-.82-.26c-.25-.09-.51-.21-.76-.33a26.71,26.71,0,0,1,0-14L4.71.66,5,.54a6.31,6.31,0,0,1,.9-.29A5.25,5.25,0,0,1,6.62.11Z"/>
          <path class="cls-2" d="M4.33,14.87c.25.12.51.24.76.33A7.59,7.59,0,0,1,2,13.06,28.68,28.68,0,0,1,2,2.65,7.59,7.59,0,0,1,4.34.84,26.71,26.71,0,0,0,4.33,14.87Z"/>
          <path class="cls-3" d="M1.57,3.17c.13-.18.27-.35.42-.52A28.68,28.68,0,0,0,2,13.06a5.66,5.66,0,0,1-.43-.54c-.14-.2-.28-.39-.4-.58s-.23-.4-.33-.61a4.76,4.76,0,0,1-.29-.65A5.11,5.11,0,0,1,.31,10a4.18,4.18,0,0,1-.16-.68A5.07,5.07,0,0,1,0,8.66a7,7,0,0,1,0-.8,7.2,7.2,0,0,1,0-.81,5.35,5.35,0,0,1,.11-.68A3.84,3.84,0,0,1,.31,5.7a3.62,3.62,0,0,1,.2-.61A.49.49,0,0,1,.55,5c.07-.19.16-.4.25-.59l0,0c.09-.2.21-.4.32-.59s.25-.38.37-.56A.11.11,0,0,0,1.57,3.17Z"/>
          <path class="cls-4" d="M12.11,1.25l.06.12a7.87,7.87,0,0,1-9,12.75,7.77,7.77,0,0,0,4.73,1.6A7.86,7.86,0,0,0,12.11,1.25Z"/>
        </g>
      </g>
    </g>
  </g>
</svg>
