<svg xmlns="http://www.w3.org/2000/svg" xmlns:xlink="http://www.w3.org/1999/xlink" viewBox="0 0 360 200">
  <defs>
    <style>
      .cls-1, .cls-18, .cls-6 {
        fill: #2e2e2e;
      }

      .cls-2 {
        fill: #ff4d4d;
      }

      .cls-3 {
        fill: #f3f3f6;
      }

      .cls-4 {
        opacity: 0.15;
        fill: url(#linear-gradient);
      }

      .cls-5 {
        fill: #ff8484;
      }

      .cls-6 {
        opacity: 0.45;
      }

      .cls-10, .cls-11, .cls-12, .cls-13, .cls-14, .cls-15, .cls-19, .cls-7, .cls-8, .cls-9 {
        fill: none;
      }

      .cls-7 {
        stroke: #fff;
        stroke-linecap: round;
      }

      .cls-10, .cls-11, .cls-12, .cls-13, .cls-14, .cls-15, .cls-7, .cls-8, .cls-9 {
        stroke-miterlimit: 10;
      }

      .cls-7, .cls-8 {
        stroke-width: 0.5px;
      }

      .cls-8 {
        stroke: url(#linear-gradient-2);
      }

      .cls-10, .cls-11, .cls-12, .cls-13, .cls-14, .cls-15, .cls-9 {
        stroke-width: 0.25px;
      }

      .cls-9 {
        stroke: url(#linear-gradient-3);
      }

      .cls-10 {
        stroke: url(#linear-gradient-4);
      }

      .cls-11 {
        stroke: url(#linear-gradient-5);
      }

      .cls-12 {
        stroke: url(#linear-gradient-6);
      }

      .cls-13 {
        stroke: #2e2e2e;
      }

      .cls-14 {
        stroke: #ff6969;
      }

      .cls-15 {
        stroke: #f6f6f8;
      }

      .cls-16 {
        fill: #fff;
      }

      .cls-17 {
        fill: #83ffda;
      }

      .cls-18 {
        opacity: 0.25;
      }
    </style>
    <linearGradient id="linear-gradient" x1="161.2" y1="118.63" x2="167.51" y2="118.63" gradientUnits="userSpaceOnUse">
      <stop offset="0.01"/>
      <stop offset="1" stop-color="#ff4d4d" stop-opacity="0"/>
    </linearGradient>
    <linearGradient id="linear-gradient-2" x1="145.21" y1="95.61" x2="164.09" y2="95.61" gradientTransform="matrix(1.01, 0, 0, 1, -1.74, -1.38)" gradientUnits="userSpaceOnUse">
      <stop offset="0" stop-color="#626262"/>
      <stop offset="0.44" stop-color="#696969"/>
      <stop offset="1" stop-color="#797979"/>
    </linearGradient>
    <linearGradient id="linear-gradient-3" x1="153.01" y1="94.42" x2="153.01" y2="82.65" gradientUnits="userSpaceOnUse">
      <stop offset="0" stop-color="#626262"/>
      <stop offset="0.17" stop-color="#676767" stop-opacity="0.93"/>
      <stop offset="0.4" stop-color="#757575" stop-opacity="0.75"/>
      <stop offset="0.68" stop-color="#8d8d8d" stop-opacity="0.45"/>
      <stop offset="0.98" stop-color="#adadad" stop-opacity="0.04"/>
      <stop offset="1" stop-color="#b0b0b0" stop-opacity="0"/>
    </linearGradient>
    <linearGradient id="linear-gradient-4" x1="152.85" y1="90.35" x2="158.1" y2="90.35" xlink:href="#linear-gradient-3"/>
    <linearGradient id="linear-gradient-5" x1="139.83" y1="96.3" x2="152.92" y2="96.3" gradientUnits="userSpaceOnUse">
      <stop offset="0" stop-color="#b0b0b0" stop-opacity="0"/>
      <stop offset="0.02" stop-color="#adadad" stop-opacity="0.04"/>
      <stop offset="0.32" stop-color="#8d8d8d" stop-opacity="0.45"/>
      <stop offset="0.6" stop-color="#757575" stop-opacity="0.75"/>
      <stop offset="0.83" stop-color="#676767" stop-opacity="0.93"/>
      <stop offset="1" stop-color="#626262"/>
    </linearGradient>
    <linearGradient id="linear-gradient-6" x1="143.98" y1="98.1" x2="153.09" y2="98.1" xlink:href="#linear-gradient-5"/>
  </defs>
  <title>main 5</title>
  <g id="Layer_2" data-name="Layer 2">
    <g id="scene">
      <g>
        <g id="main">
          <g id="toal">
            <g>
              <path class="cls-1" d="M185.94,121.76H163.71a1.21,1.21,0,0,1-.49-.11h0a2.28,2.28,0,0,0-1.52-.2l-1.58.31H150.5l-1-1.31,33.32-27.2,37.84-1.61Z"/>
              <path class="cls-2" d="M185.57,121.54H165.19a3.37,3.37,0,0,1-1.09-.18l-2.12-.74a2.08,2.08,0,0,0-2.25.61h0a.9.9,0,0,1-.69.31h-8.46l-1.18-1.35,33.18-28.77h4.76a10.6,10.6,0,0,0,3.18.1l.91-.1h5.24l2.67-.1,1.53.1,2,.2,2-.26a9.52,9.52,0,0,1,1.41-.07l1.56,0,1.82.09H220.3Z"/>
              <polygon class="cls-3" points="151.37 118.49 189.09 118.49 193.61 114.57 155.9 114.57 151.37 118.49"/>
              <polygon class="cls-3" points="157.34 113.31 195.06 113.31 195.48 112.95 157.76 112.95 157.34 113.31"/>
              <path class="cls-4" d="M161.2,120.51h.05a6.85,6.85,0,0,1,2.15.48c.57.24,1.17.48,1.26.5l2,0,.84-5.82Z"/>
            </g>
            <polygon id="corner" class="cls-5" points="150.58 121.54 149.81 119.16 149.4 120.19 150.58 121.54"/>
          </g>
          <g id="umbrella">
            <path id="shadow" class="cls-6" d="M190,97.35c-5.23-1.93-21.14.17-35.53,4.7s-21.81,9.77-16.58,11.7c4.89,1.81,19.11.08,32.7-3.85l4.16,2.26.17-.47-3.65-2,2.15-.65C187.78,104.52,195.2,99.28,190,97.35Z"/>
            <g id="body">
              <path class="cls-2" d="M157.85,101.1c-8.91,9.48-18.83,13.63-22.93,10.55-1.65-1.23-2.09-4.59-1.91-8.66.65-14.78,12.23-27,27-27.61,3-.12,5.44.25,6.64,1.45C170.76,80.93,166.76,91.62,157.85,101.1Z"/>
              <path class="cls-1" d="M158,101.2c8.61-9.15,12.61-19.42,9.18-23.81-4.22-2.92-14.16,1.78-22.75,10.92-8.36,8.89-12.46,18.81-9.75,23a2.4,2.4,0,0,0,.39.39C139.12,114.83,149,110.68,158,101.2Z"/>
              <g>
                <line class="cls-7" x1="163.64" y1="102.87" x2="174.81" y2="111.93"/>
                <line class="cls-8" x1="144.98" y1="87.79" x2="163.74" y2="102.97"/>
                <line class="cls-9" x1="152.96" y1="94.42" x2="153.06" y2="82.65"/>
                <line class="cls-10" x1="152.96" y1="94.42" x2="157.99" y2="86.27"/>
                <line class="cls-11" x1="152.88" y1="94.19" x2="139.87" y2="98.41"/>
                <line class="cls-12" x1="153.01" y1="94.43" x2="144.06" y2="101.77"/>
              </g>
              <path class="cls-6" d="M134.57,103.74a17.63,17.63,0,0,1-.71-6.59A29,29,0,0,0,133,103c-.17,3.81.22,7,1.62,8.37C133.52,109.62,133.57,106.92,134.57,103.74Z"/>
              <line class="cls-13" x1="139.14" y1="83.45" x2="140.6" y2="84.59"/>
              <path class="cls-14" d="M136.28,99.57c-2.14-8.7,4.32-15,4.32-15a19.16,19.16,0,0,1,16.25-6"/>
              <line class="cls-13" x1="167.13" y1="77.39" x2="168.36" y2="77.65"/>
              <line class="cls-13" x1="166.96" y1="87.73" x2="168.28" y2="88.02"/>
              <line class="cls-13" x1="134.12" y1="109.67" x2="134.06" y2="111.36"/>
              <line class="cls-13" x1="160.31" y1="98.52" x2="161.35" y2="99.27"/>
              <line class="cls-13" x1="150.62" y1="107.69" x2="151.08" y2="108.48"/>
              <line class="cls-15" x1="156.85" y1="78.6" x2="157.77" y2="78.64"/>
              <line class="cls-15" x1="136.28" y1="99.57" x2="136.56" y2="100.47"/>
              <line class="cls-14" x1="140.6" y1="84.59" x2="144.98" y2="87.79"/>
              <line class="cls-15" x1="144.98" y1="87.79" x2="145.7" y2="88.33"/>
            </g>
          </g>
          <g id="ballon">
            <ellipse id="shadow-2" data-name="shadow" class="cls-6" cx="215.39" cy="113.68" rx="8.21" ry="2.44" transform="translate(-13.99 31.82) rotate(-8.19)"/>
            <g id="body-2" data-name="body">
              <circle class="cls-16" cx="211.39" cy="107.65" r="7.84"/>
              <path class="cls-17" d="M219.21,106.85a7,7,0,0,1,0,.8,7.2,7.2,0,0,1,0,.81c0,.22-.06.44-.1.65a3.87,3.87,0,0,1-.17.69,4.38,4.38,0,0,1-.22.67,6.17,6.17,0,0,1-.29.65c-.08.16-.16.33-.26.49a1.42,1.42,0,0,1-.14.23l-.3.44,0,0a4.41,4.41,0,0,1-.39.49l0,0a17.12,17.12,0,0,1,0-10.36,3.92,3.92,0,0,1,.43.54,4.66,4.66,0,0,1,.38.54l0,.06c.1.18.21.38.3.57a4.76,4.76,0,0,1,.29.65,4.64,4.64,0,0,1,.22.66,4.34,4.34,0,0,1,.17.69C219.15,106.4,219.19,106.63,219.21,106.85Z"/>
              <path class="cls-16" d="M215.76,101.13a6.75,6.75,0,0,1,1.52,1.35,17.12,17.12,0,0,0,0,10.36,7.92,7.92,0,0,1-1.53,1.35A19,19,0,0,1,215.76,101.13Z"/>
              <path class="cls-17" d="M215.76,101.12h0a19,19,0,0,0,0,13.06l-.08,0a7.47,7.47,0,0,1-1.18.64l-.69.26c-.24.07-.47.14-.71.19a21.87,21.87,0,0,1,0-15.33,6.22,6.22,0,0,1,.71.19A8.05,8.05,0,0,1,215.76,101.12Z"/>
              <path class="cls-16" d="M211.38,99.8a7.41,7.41,0,0,1,1.71.19,21.87,21.87,0,0,0,0,15.33,7.41,7.41,0,0,1-1.71.19h-.24a23.78,23.78,0,0,1,0-15.69Z"/>
              <path class="cls-17" d="M210.14,99.9a8.42,8.42,0,0,1,1-.09,23.78,23.78,0,0,0,0,15.69,6.64,6.64,0,0,1-1-.1,5.94,5.94,0,0,1-.71-.14,5.87,5.87,0,0,1-.81-.26,6.33,6.33,0,0,1-.76-.34,26.71,26.71,0,0,1,0-14l.37-.18.29-.11a5.89,5.89,0,0,1,.9-.29A6,6,0,0,1,210.14,99.9Z"/>
              <path class="cls-16" d="M207.86,114.66a6.33,6.33,0,0,0,.76.34,7.49,7.49,0,0,1-3.11-2.15,28.46,28.46,0,0,1,0-10.41,7.62,7.62,0,0,1,2.35-1.81A26.71,26.71,0,0,0,207.86,114.66Z"/>
              <path class="cls-17" d="M205.09,103c.14-.18.28-.35.43-.52a28.46,28.46,0,0,0,0,10.41c-.15-.17-.3-.35-.44-.54s-.27-.38-.39-.57-.23-.4-.34-.61-.2-.43-.28-.65a6.59,6.59,0,0,1-.23-.67c-.06-.22-.12-.44-.16-.67a5.31,5.31,0,0,1-.1-.68,7.2,7.2,0,0,1,0-.81,7,7,0,0,1,0-.8,5.06,5.06,0,0,1,.1-.68c0-.23.1-.45.16-.68s.12-.4.2-.6l.05-.12c.07-.19.16-.39.25-.58l0,0c.1-.2.21-.4.33-.59a6.23,6.23,0,0,1,.37-.57Z"/>
              <path class="cls-18" d="M215.63,101.05l.07.11a7.87,7.87,0,0,1-5.28,13.72,7.77,7.77,0,0,1-3.77-1,7.85,7.85,0,1,0,9-12.86Z"/>
            </g>
          </g>
        </g>
        <rect id="square" class="cls-19" width="360" height="200"/>
      </g>
    </g>
  </g>
</svg>
