<svg xmlns="http://www.w3.org/2000/svg" xmlns:xlink="http://www.w3.org/1999/xlink" viewBox="0 0 165.36 95.32">
  <defs>
    <style>
      .cls-1, .cls-2, .cls-3, .cls-4 {
        fill: #ff4f4f;
      }

      .cls-1 {
        opacity: 0.04;
      }

      .cls-2 {
        opacity: 0.13;
      }

      .cls-3 {
        opacity: 0.21;
      }

      .cls-4 {
        opacity: 0.3;
      }

      .cls-5 {
        fill: url(#radial-gradient);
      }
    </style>
    <radialGradient id="radial-gradient" cx="61.18" cy="113.33" r="136.54" gradientUnits="userSpaceOnUse">
      <stop offset="0" stop-color="#ff4f4f"/>
      <stop offset="0.13" stop-color="#ff5351"/>
      <stop offset="0.25" stop-color="#ff5d56"/>
      <stop offset="0.36" stop-color="#ff7060"/>
      <stop offset="0.47" stop-color="#ff896d"/>
      <stop offset="0.54" stop-color="#ff9d77"/>
    </radialGradient>
  </defs>
  <title>sunset</title>
  <g id="Layer_2" data-name="Layer 2">
    <g id="Layer_1-2" data-name="Layer 1">
      <g>
        <g>
          <path class="cls-1" d="M164.37,95.32A82.68,82.68,0,1,0,1,95.32Z"/>
          <path class="cls-2" d="M152.11,95.32a65.67,65.67,0,0,0,1.25-12.64A70.68,70.68,0,0,0,12,82.68a65.66,65.66,0,0,0,1.24,12.64Z"/>
          <path class="cls-3" d="M139.86,95.32a54.59,54.59,0,0,0,1.5-12.64A58.68,58.68,0,0,0,24,82.68a54.59,54.59,0,0,0,1.5,12.64Z"/>
          <path class="cls-4" d="M127.6,95.32a46.68,46.68,0,1,0-89.85,0Z"/>
        </g>
        <path class="cls-5" d="M127.6,95.32a46.68,46.68,0,1,0-89.85,0Z"/>
      </g>
    </g>
  </g>
</svg>
