<?xml version="1.0" encoding="utf-8"?>
<!-- Generator: Adobe Illustrator 22.0.0, SVG Export Plug-In . SVG Version: 6.00 Build 0)  -->
<svg version="1.1" id="Layer_1" xmlns="http://www.w3.org/2000/svg" xmlns:xlink="http://www.w3.org/1999/xlink" x="0px" y="0px"
	 viewBox="0 0 400 400" style="enable-background:new 0 0 400 400;" xml:space="preserve">
<style type="text/css">
	.st0{fill:#A8FFFF;}
	.st1{opacity:8.000000e-02;}
	.st2{fill:#FFE2A3;}
	.st3{fill:#FF4369;}
	.st4{fill:#322934;}
</style>
<title>main</title>
<rect class="st0" width="400" height="400"/>
<g class="st1">
	<path d="M200.2,201.3c1.3,0,2.5,4.9,3.8,5c23.7,2.1,41.9,22,41.9,45.8h11.7c0-31.9-25.8-57.7-57.7-57.7s-57.7,25.8-57.7,57.7h11.7
		c0-23.9,18.3-43.8,42.2-45.8C197.5,206.2,198.9,201.3,200.2,201.3z"/>
	<path d="M200,194.5c31.8,0,57.6,25.8,57.7,57.7h11.7c0-38.3-31.1-69.4-69.4-69.4s-69.4,31.1-69.4,69.4c0,0,0,0,0,0h11.7
		C142.4,220.3,168.2,194.5,200,194.5z"/>
	<path d="M167,252.1L167,252.1c0-13.2,7.9-25.1,20-30.3l3.9-1.7l9.1-15.6l8.9,15.5l4,1.7c12.2,5.2,20.2,17.2,20.1,30.4h14.1
		c0-18.8-11.2-35.8-28.4-43.2L200,176.5L181,209c-17.1,7.5-28.1,24.4-28.1,43.1L167,252.1L167,252.1z"/>
</g>
<g>
	<path class="st2" d="M200.2,187c1.3,0,2.5,4.9,3.8,5c23.7,2.1,41.9,22,41.9,45.8h11.7c0-31.9-25.8-57.7-57.7-57.7
		s-57.7,25.8-57.7,57.7h11.7c0-23.9,18.3-43.8,42.2-45.8C197.5,191.9,198.9,187,200.2,187z"/>
	<path class="st3" d="M200,180.1c31.8,0,57.6,25.8,57.7,57.7h11.7c0-38.3-31.1-69.4-69.4-69.4c-38.3,0-69.4,31.1-69.4,69.4h11.7
		C142.4,206,168.2,180.2,200,180.1z"/>
	<path class="st4" d="M167,237.8L167,237.8c0-13.2,7.9-25.1,20-30.3l3.9-1.7l9.1-15.6l8.9,15.5l4,1.7c12.2,5.2,20.1,17.2,20.1,30.4
		h14.1c0-18.8-11.2-35.8-28.4-43.2L200,162.2l-19,32.6c-17.1,7.5-28.1,24.4-28.1,43.1L167,237.8L167,237.8z"/>
</g>
</svg>
