<svg xmlns="http://www.w3.org/2000/svg" viewBox="0 0 238 75.24">
  <defs>
    <style>
      .cls-1 {
        fill: none;
      }

      .cls-2 {
        opacity: 0.25;
      }

      .cls-3 {
        fill: #1e1e1e;
      }

      .cls-4 {
        fill: #e0c5c1;
      }

      .cls-5 {
        fill: #fff;
      }

      .cls-6 {
        fill: #f6f1a9;
      }

      .cls-7 {
        fill: #404040;
      }

      .cls-8 {
        fill: #f91e48;
      }

      .cls-9 {
        fill: #ddc3bf;
      }

      .cls-10 {
        fill: #f9416d;
      }

      .cls-11 {
        fill: #f21938;
      }

      .cls-12 {
        fill: #262626;
      }
    </style>
  </defs>
  <title>six</title>
  <g id="Layer_2" data-name="Layer 2">
    <g id="Layer_1-2" data-name="Layer 1">
      <g>
        <rect class="cls-1" width="238" height="75.24"/>
        <g class="cls-2">
          <polygon class="cls-3" points="127.65 42.81 126.49 42.81 125.34 42.81 125.34 41.66 124.19 41.66 123.03 41.66 121.88 41.66 120.73 41.66 120.73 40.5 119.58 40.5 119.58 39.35 119.58 38.2 118.42 38.2 118.42 37.05 117.27 37.05 117.27 35.89 116.12 35.89 116.12 34.74 114.97 34.74 114.97 33.59 113.81 33.59 112.66 33.59 112.66 34.74 112.66 35.89 113.81 35.89 113.81 37.05 113.81 38.2 113.81 39.35 114.97 39.35 114.97 40.5 114.97 41.66 116.12 41.66 116.12 42.81 116.12 43.96 116.12 45.12 114.97 45.12 114.97 43.96 113.81 43.96 112.66 43.96 111.51 43.96 111.51 45.12 110.35 45.12 110.35 46.27 109.2 46.27 109.2 47.42 110.35 47.42 110.35 48.57 111.51 48.57 112.66 48.57 113.81 48.57 113.81 49.73 113.81 50.88 114.97 50.88 114.97 52.03 116.12 52.03 116.12 53.19 117.27 53.19 117.27 54.34 117.27 55.49 118.42 55.49 119.58 55.49 120.73 55.49 121.88 55.49 123.03 55.49 123.03 54.34 124.19 54.34 124.19 55.49 125.34 55.49 126.49 55.49 126.49 54.34 126.49 53.19 126.49 52.03 127.65 52.03 127.65 50.88 127.65 49.73 128.8 49.73 128.8 48.57 128.8 47.42 128.8 46.27 128.8 45.12 128.8 43.96 127.65 43.96 127.65 42.81"/>
          <path class="cls-3" d="M93.05,44V42.81H90.74V41.66H86.13V40.5H85V38.2H83.83V37.05H82.67V35.89H81.52V34.74H80.37V33.59H78.06v2.3h1.15v3.46h1.16v2.31h1.15v3.46H80.37V44H76.91v1.16H75.76v1.15H74.6v1.15h1.16v1.15h3.45v2.31h1.16V52h1.15v1.16h1.15v2.3h5.77V54.34h1.15v1.15H91.9V52h1.15v-2.3H94.2V44Zm-5.77,6.92Zm-1.15-2.31h0Zm3.46,2.31h0Zm-1.15-2.31ZM81.52,37.05h0ZM85,50.88Z"/>
          <polygon class="cls-3" points="162.25 42.81 161.09 42.81 159.94 42.81 159.94 41.66 158.79 41.66 157.63 41.66 156.48 41.66 155.33 41.66 155.33 40.5 154.18 40.5 154.18 39.35 154.18 38.2 153.02 38.2 153.02 37.05 151.87 37.05 151.87 35.89 150.72 35.89 150.72 34.74 149.56 34.74 149.56 33.59 148.41 33.59 147.26 33.59 147.26 34.74 147.26 35.89 148.41 35.89 148.41 37.05 148.41 38.2 148.41 39.35 149.56 39.35 149.56 40.5 149.56 41.66 150.72 41.66 150.72 42.81 150.72 43.96 150.72 45.12 149.56 45.12 149.56 43.96 148.41 43.96 147.26 43.96 146.1 43.96 146.1 45.12 144.95 45.12 144.95 46.27 143.8 46.27 143.8 47.42 144.95 47.42 144.95 48.57 146.1 48.57 147.26 48.57 148.41 48.57 148.41 49.73 148.41 50.88 149.56 50.88 149.56 52.03 150.72 52.03 150.72 53.19 151.87 53.19 151.87 54.34 151.87 55.49 153.02 55.49 154.18 55.49 155.33 55.49 156.48 55.49 157.63 55.49 157.63 54.34 158.79 54.34 158.79 55.49 159.94 55.49 161.09 55.49 161.09 54.34 161.09 53.19 161.09 52.03 162.25 52.03 162.25 50.88 162.25 49.73 163.4 49.73 163.4 48.57 163.4 47.42 163.4 46.27 163.4 45.12 163.4 43.96 162.25 43.96 162.25 42.81"/>
          <path class="cls-3" d="M58.45,42.81H56.14V41.66H51.53V40.5H50.38V38.2H49.23V37.05H48.07V35.89H46.92V34.74H45.77V33.59H43.46v2.3h1.16V34.74h0v1.15h0v3.46h1.15v2.31h1.15v3.46H45.77V44H42.31v1.16H41.16v1.15h0v1.15h0v1.15h3.46v2.31h1.15V52h1.15v1.16h1.15v2.3h5.77V54.34H55v1.15H57.3V52h1.15v-2.3H59.6V44H58.45ZM45.77,35.89v1.16h0V35.89Z"/>
          <rect class="cls-3" x="40" y="46.27" width="1.15" height="1.15"/>
          <polygon class="cls-3" points="196.84 43.96 196.84 42.81 195.69 42.81 194.54 42.81 194.54 41.66 193.38 41.66 192.23 41.66 191.08 41.66 189.93 41.66 189.93 40.5 188.77 40.5 188.77 39.35 188.77 38.2 187.62 38.2 187.62 37.05 186.47 37.05 186.47 35.89 185.31 35.89 185.31 34.74 184.16 34.74 184.16 33.59 183.01 33.59 181.86 33.59 181.86 34.74 181.86 35.89 183.01 35.89 183.01 37.05 183.01 38.2 183.01 39.35 184.16 39.35 184.16 40.5 184.16 41.66 185.31 41.66 185.31 42.81 185.31 43.96 185.31 45.12 184.16 45.12 184.16 43.96 183.01 43.96 181.86 43.96 180.7 43.96 180.7 45.12 179.55 45.12 179.55 46.27 178.4 46.27 178.4 47.42 179.55 47.42 179.55 48.57 180.7 48.57 181.86 48.57 183.01 48.57 183.01 49.73 183.01 50.88 184.16 50.88 184.16 52.03 185.31 52.03 185.31 53.19 186.47 53.19 186.47 54.34 186.47 55.49 187.62 55.49 188.77 55.49 189.93 55.49 191.08 55.49 192.23 55.49 192.23 54.34 193.38 54.34 193.38 55.49 194.54 55.49 195.69 55.49 195.69 54.34 195.69 53.19 195.69 52.03 196.84 52.03 196.84 50.88 196.84 49.73 198 49.73 198 48.57 198 47.42 198 46.27 198 45.12 198 43.96 196.84 43.96"/>
        </g>
        <g>
          <g>
            <g>
              <rect class="cls-3" x="127.65" y="41.66" width="1.15" height="1.15"/>
              <rect class="cls-3" x="127.65" y="40.5" width="1.15" height="1.15"/>
              <rect class="cls-3" x="127.65" y="39.35" width="1.15" height="1.15"/>
              <rect class="cls-3" x="127.65" y="38.2" width="1.15" height="1.15"/>
              <rect class="cls-3" x="127.65" y="37.05" width="1.15" height="1.15"/>
              <rect class="cls-3" x="126.49" y="43.96" width="1.15" height="1.15"/>
              <rect class="cls-3" x="126.49" y="42.81" width="1.15" height="1.15"/>
              <rect class="cls-3" x="126.49" y="35.89" width="1.15" height="1.15"/>
              <rect class="cls-3" x="125.34" y="47.42" width="1.15" height="1.15"/>
              <rect class="cls-3" x="125.34" y="46.27" width="1.15" height="1.15"/>
              <rect class="cls-3" x="125.34" y="45.12" width="1.15" height="1.15"/>
              <rect class="cls-3" x="125.34" y="37.05" width="1.15" height="1.15"/>
              <rect class="cls-3" x="125.34" y="35.89" width="1.15" height="1.15"/>
              <rect class="cls-3" x="124.19" y="47.42" width="1.15" height="1.15"/>
              <rect class="cls-3" x="124.19" y="43.96" width="1.15" height="1.15"/>
              <rect class="cls-3" x="124.19" y="40.5" width="1.15" height="1.15"/>
              <rect class="cls-3" x="124.19" y="34.74" width="1.15" height="1.15"/>
              <rect class="cls-3" x="123.03" y="46.27" width="1.15" height="1.15"/>
              <rect class="cls-3" x="123.03" y="42.81" width="1.15" height="1.15"/>
              <rect class="cls-3" x="123.03" y="41.66" width="1.15" height="1.15"/>
              <rect class="cls-3" x="123.03" y="37.05" width="1.15" height="1.15"/>
              <rect class="cls-3" x="123.03" y="35.89" width="1.15" height="1.15"/>
              <rect class="cls-3" x="123.03" y="34.74" width="1.15" height="1.15"/>
              <rect class="cls-3" x="121.88" y="47.42" width="1.15" height="1.15"/>
              <rect class="cls-3" x="121.88" y="43.96" width="1.15" height="1.15"/>
              <rect class="cls-3" x="121.88" y="40.5" width="1.15" height="1.15"/>
              <rect class="cls-3" x="121.88" y="34.74" width="1.15" height="1.15"/>
              <rect class="cls-3" x="120.73" y="47.42" width="1.15" height="1.15"/>
              <rect class="cls-3" x="120.73" y="42.81" width="1.15" height="1.15"/>
              <rect class="cls-3" x="120.73" y="41.66" width="1.15" height="1.15"/>
              <rect class="cls-3" x="120.73" y="34.74" width="1.15" height="1.15"/>
              <rect class="cls-3" x="119.58" y="47.42" width="1.15" height="1.15"/>
              <rect class="cls-3" x="119.58" y="43.96" width="1.15" height="1.15"/>
              <rect class="cls-3" x="119.58" y="40.5" width="1.15" height="1.15"/>
              <rect class="cls-3" x="119.58" y="37.05" width="1.15" height="1.15"/>
              <rect class="cls-3" x="119.58" y="35.89" width="1.15" height="1.15"/>
              <rect class="cls-3" x="119.58" y="34.74" width="1.15" height="1.15"/>
              <rect class="cls-3" x="119.58" y="33.59" width="1.15" height="1.15"/>
              <rect class="cls-3" x="118.42" y="47.42" width="1.15" height="1.15"/>
              <rect class="cls-3" x="118.42" y="32.43" width="1.15" height="1.15"/>
              <rect class="cls-3" x="118.42" y="31.28" width="1.15" height="1.15"/>
              <rect class="cls-3" x="117.27" y="47.42" width="1.15" height="1.15"/>
              <rect class="cls-3" x="117.27" y="46.27" width="1.15" height="1.15"/>
              <rect class="cls-3" x="117.27" y="30.13" width="1.15" height="1.15"/>
              <rect class="cls-3" x="116.12" y="45.12" width="1.15" height="1.15"/>
              <rect class="cls-3" x="116.12" y="39.35" width="1.15" height="1.15"/>
              <rect class="cls-3" x="116.12" y="38.2" width="1.15" height="1.15"/>
              <rect class="cls-3" x="116.12" y="37.05" width="1.15" height="1.15"/>
              <rect class="cls-3" x="116.12" y="35.89" width="1.15" height="1.15"/>
              <rect class="cls-3" x="116.12" y="34.74" width="1.15" height="1.15"/>
              <rect class="cls-3" x="116.12" y="28.98" width="1.15" height="1.15"/>
              <rect class="cls-3" x="114.97" y="43.96" width="1.15" height="1.15"/>
              <rect class="cls-3" x="114.97" y="38.2" width="1.15" height="1.15"/>
              <rect class="cls-3" x="114.97" y="33.59" width="1.15" height="1.15"/>
              <rect class="cls-3" x="114.97" y="32.43" width="1.15" height="1.15"/>
              <rect class="cls-3" x="114.97" y="30.13" width="1.15" height="1.15"/>
              <rect class="cls-3" x="114.97" y="27.82" width="1.15" height="1.15"/>
              <rect class="cls-3" x="113.81" y="42.81" width="1.15" height="1.15"/>
              <rect class="cls-3" x="113.81" y="41.66" width="1.15" height="1.15"/>
              <rect class="cls-3" x="113.81" y="37.05" width="1.15" height="1.15"/>
              <rect class="cls-3" x="113.81" y="31.28" width="1.15" height="1.15"/>
              <rect class="cls-3" x="113.81" y="30.13" width="1.15" height="1.15"/>
              <rect class="cls-3" x="113.81" y="28.98" width="1.15" height="1.15"/>
              <rect class="cls-3" x="113.81" y="26.67" width="1.15" height="1.15"/>
              <rect class="cls-3" x="112.66" y="40.5" width="1.15" height="1.15"/>
              <rect class="cls-3" x="112.66" y="39.35" width="1.15" height="1.15"/>
              <rect class="cls-3" x="112.66" y="37.05" width="1.15" height="1.15"/>
              <rect class="cls-3" x="112.66" y="27.82" width="1.15" height="1.15"/>
              <rect class="cls-3" x="112.66" y="26.67" width="1.15" height="1.15"/>
              <rect class="cls-3" x="111.51" y="40.5" width="1.15" height="1.15"/>
              <rect class="cls-3" x="111.51" y="37.05" width="1.15" height="1.15"/>
              <rect class="cls-3" x="110.35" y="40.5" width="1.15" height="1.15"/>
              <g>
                <rect class="cls-4" x="114.97" y="28.98" width="1.15" height="1.15"/>
                <rect class="cls-4" x="113.81" y="27.82" width="1.15" height="1.15"/>
                <polygon class="cls-4" points="110.35 39.35 110.35 40.5 111.51 40.5 112.66 40.5 112.66 39.35 111.51 39.35 110.35 39.35"/>
              </g>
              <rect class="cls-3" x="110.35" y="38.2" width="1.15" height="1.15"/>
              <rect class="cls-3" x="109.2" y="39.35" width="1.15" height="1.15"/>
            </g>
            <g>
              <polygon class="cls-5" points="126.49 37.05 126.49 38.2 125.34 38.2 125.34 37.05 125.34 35.89 124.19 35.89 124.19 37.05 124.19 38.2 123.03 38.2 123.03 37.05 123.03 35.89 121.88 35.89 120.73 35.89 120.73 37.05 120.73 38.2 119.58 38.2 119.58 37.05 119.58 35.89 119.58 34.74 119.58 33.59 118.42 33.59 118.42 32.43 118.42 31.28 117.27 31.28 117.27 30.13 116.12 30.13 116.12 31.28 114.97 31.28 114.97 32.43 116.12 32.43 116.12 33.59 116.12 34.74 117.27 34.74 117.27 35.89 117.27 37.05 117.27 38.2 117.27 39.35 117.27 40.5 116.12 40.5 116.12 39.35 114.97 39.35 114.97 38.2 113.81 38.2 112.66 38.2 111.51 38.2 111.51 39.35 112.66 39.35 113.81 39.35 113.81 40.5 113.81 41.66 114.97 41.66 114.97 42.81 114.97 43.96 116.12 43.96 116.12 45.12 117.27 45.12 117.27 46.27 118.42 46.27 118.42 47.42 119.58 47.42 120.73 47.42 121.88 47.42 123.03 47.42 123.03 46.27 124.19 46.27 124.19 47.42 125.34 47.42 125.34 46.27 125.34 45.12 124.19 45.12 124.19 43.96 123.03 43.96 123.03 45.12 121.88 45.12 121.88 43.96 120.73 43.96 120.73 45.12 119.58 45.12 119.58 43.96 120.73 43.96 120.73 42.81 120.73 41.66 119.58 41.66 119.58 40.5 120.73 40.5 120.73 41.66 121.88 41.66 121.88 40.5 123.03 40.5 123.03 41.66 124.19 41.66 124.19 40.5 125.34 40.5 125.34 41.66 124.19 41.66 124.19 42.81 124.19 43.96 125.34 43.96 125.34 45.12 126.49 45.12 126.49 43.96 126.49 42.81 127.65 42.81 127.65 41.66 127.65 40.5 127.65 39.35 127.65 38.2 127.65 37.05 126.49 37.05"/>
              <polygon class="cls-5" points="123.03 41.66 121.88 41.66 121.88 42.81 121.88 43.96 123.03 43.96 123.03 42.81 123.03 41.66"/>
            </g>
          </g>
          <g>
            <g>
              <g>
                <rect class="cls-6" x="80.37" y="28.98" width="1.15" height="1.15"/>
                <rect class="cls-6" x="79.21" y="27.82" width="1.15" height="1.15"/>
                <polygon class="cls-6" points="75.75 39.35 75.75 40.5 76.91 40.5 78.06 40.5 78.06 39.35 76.91 39.35 75.75 39.35"/>
              </g>
              <g>
                <polygon class="cls-7" points="93.05 37.05 93.05 38.2 93.05 39.35 93.05 40.5 93.05 41.66 93.05 42.81 94.2 42.81 94.2 41.66 94.2 40.5 94.2 39.35 94.2 38.2 94.2 37.05 93.05 37.05"/>
                <polygon class="cls-7" points="91.89 43.96 91.89 45.12 93.05 45.12 93.05 43.96 93.05 42.81 91.89 42.81 91.89 43.96"/>
                <polygon class="cls-7" points="90.74 46.27 90.74 47.42 89.59 47.42 89.59 48.57 90.74 48.57 91.89 48.57 91.89 47.42 91.89 46.27 91.89 45.12 90.74 45.12 90.74 46.27"/>
                <polygon class="cls-7" points="90.74 38.2 91.89 38.2 91.89 37.05 93.05 37.05 93.05 35.89 91.89 35.89 90.74 35.89 90.74 37.05 90.74 38.2"/>
                <rect class="cls-7" x="89.59" y="43.96" width="1.15" height="1.15"/>
                <rect class="cls-7" x="89.59" y="40.5" width="1.15" height="1.15"/>
                <rect class="cls-7" x="88.44" y="46.27" width="1.15" height="1.15"/>
                <polygon class="cls-7" points="89.59 41.66 88.44 41.66 88.44 42.81 88.44 43.96 89.59 43.96 89.59 42.81 89.59 41.66"/>
                <rect class="cls-7" x="87.28" y="43.96" width="1.15" height="1.15"/>
                <rect class="cls-7" x="87.28" y="40.5" width="1.15" height="1.15"/>
                <polygon class="cls-7" points="86.13 47.42 84.98 47.42 83.83 47.42 83.83 46.27 82.67 46.27 82.67 47.42 82.67 48.57 83.83 48.57 84.98 48.57 86.13 48.57 87.28 48.57 88.44 48.57 88.44 47.42 87.28 47.42 86.13 47.42"/>
                <polygon class="cls-7" points="87.28 41.66 86.13 41.66 86.13 42.81 86.13 43.96 87.28 43.96 87.28 42.81 87.28 41.66"/>
                <rect class="cls-7" x="84.98" y="43.96" width="1.15" height="1.15"/>
                <rect class="cls-7" x="84.98" y="40.5" width="1.15" height="1.15"/>
                <polygon class="cls-7" points="84.98 35.89 84.98 37.05 84.98 38.2 86.13 38.2 86.13 37.05 86.13 35.89 87.28 35.89 88.44 35.89 88.44 37.05 88.44 38.2 89.59 38.2 89.59 37.05 89.59 35.89 90.74 35.89 90.74 34.74 89.59 34.74 88.44 34.74 87.28 34.74 86.13 34.74 86.13 33.59 84.98 33.59 84.98 34.74 84.98 35.89"/>
                <polygon class="cls-7" points="83.83 33.59 84.98 33.59 84.98 32.43 84.98 31.28 83.83 31.28 83.83 32.43 83.83 33.59"/>
                <rect class="cls-7" x="82.67" y="30.13" width="1.15" height="1.15"/>
                <rect class="cls-7" x="81.52" y="45.12" width="1.15" height="1.15"/>
                <rect class="cls-7" x="81.52" y="28.98" width="1.15" height="1.15"/>
                <rect class="cls-7" x="80.37" y="43.96" width="1.15" height="1.15"/>
                <polygon class="cls-7" points="81.52 39.35 81.52 40.5 82.67 40.5 82.67 39.35 82.67 38.2 82.67 37.05 82.67 35.89 82.67 34.74 81.52 34.74 81.52 35.89 81.52 37.05 81.52 38.2 80.37 38.2 80.37 39.35 81.52 39.35"/>
                <polygon class="cls-7" points="81.52 32.43 80.37 32.43 80.37 33.59 80.37 34.74 81.52 34.74 81.52 33.59 81.52 32.43"/>
                <polygon class="cls-7" points="81.52 31.28 81.52 30.13 80.37 30.13 80.37 28.98 79.21 28.98 79.21 30.13 79.21 31.28 79.21 32.43 80.37 32.43 80.37 31.28 81.52 31.28"/>
                <rect class="cls-7" x="80.37" y="27.82" width="1.15" height="1.15"/>
                <polygon class="cls-7" points="80.37 41.66 79.21 41.66 79.21 42.81 79.21 43.96 80.37 43.96 80.37 42.81 80.37 41.66"/>
                <polygon class="cls-7" points="80.37 27.82 80.37 26.67 79.21 26.67 78.06 26.67 78.06 27.82 78.06 28.98 79.21 28.98 79.21 27.82 80.37 27.82"/>
                <polygon class="cls-7" points="79.21 39.35 78.06 39.35 78.06 40.5 76.91 40.5 75.75 40.5 75.75 41.66 76.91 41.66 78.06 41.66 79.21 41.66 79.21 40.5 79.21 39.35"/>
                <polygon class="cls-7" points="79.21 38.2 80.37 38.2 80.37 37.05 79.21 37.05 78.06 37.05 76.91 37.05 76.91 38.2 78.06 38.2 79.21 38.2"/>
                <rect class="cls-7" x="75.76" y="38.2" width="1.15" height="1.15"/>
                <rect class="cls-7" x="74.6" y="39.35" width="1.15" height="1.15"/>
              </g>
            </g>
            <g>
              <polygon class="cls-5" points="91.89 37.05 91.89 38.2 90.74 38.2 90.74 37.05 90.74 35.89 89.59 35.89 89.59 37.05 89.59 38.2 88.44 38.2 88.44 37.05 88.44 35.89 87.28 35.89 86.13 35.89 86.13 37.05 86.13 38.2 84.98 38.2 84.98 37.05 84.98 35.89 84.98 34.74 84.98 33.59 83.83 33.59 83.83 32.43 83.83 31.28 82.67 31.28 82.67 30.13 81.52 30.13 81.52 31.28 80.37 31.28 80.37 32.43 81.52 32.43 81.52 33.59 81.52 34.74 82.67 34.74 82.67 35.89 82.67 37.05 82.67 38.2 82.67 39.35 82.67 40.5 81.52 40.5 81.52 39.35 80.37 39.35 80.37 38.2 79.21 38.2 78.06 38.2 76.91 38.2 76.91 39.35 78.06 39.35 79.21 39.35 79.21 40.5 79.21 41.66 80.37 41.66 80.37 42.81 80.37 43.96 81.52 43.96 81.52 45.12 82.67 45.12 82.67 46.27 83.83 46.27 83.83 47.42 84.98 47.42 86.13 47.42 87.28 47.42 88.44 47.42 88.44 46.27 89.59 46.27 89.59 47.42 90.74 47.42 90.74 46.27 90.74 45.12 89.59 45.12 89.59 43.96 88.44 43.96 88.44 45.12 87.28 45.12 87.28 43.96 86.13 43.96 86.13 45.12 84.98 45.12 84.98 43.96 86.13 43.96 86.13 42.81 86.13 41.66 84.98 41.66 84.98 40.5 86.13 40.5 86.13 41.66 87.28 41.66 87.28 40.5 88.44 40.5 88.44 41.66 89.59 41.66 89.59 40.5 90.74 40.5 90.74 41.66 89.59 41.66 89.59 42.81 89.59 43.96 90.74 43.96 90.74 45.12 91.89 45.12 91.89 43.96 91.89 42.81 93.05 42.81 93.05 41.66 93.05 40.5 93.05 39.35 93.05 38.2 93.05 37.05 91.89 37.05"/>
              <polygon class="cls-5" points="88.44 41.66 87.28 41.66 87.28 42.81 87.28 43.96 88.44 43.96 88.44 42.81 88.44 41.66"/>
            </g>
          </g>
          <g id="_Group_" data-name="&lt;Group&gt;">
            <g>
              <polygon class="cls-8" points="158.79 41.66 157.63 41.66 157.63 42.81 157.63 43.96 156.48 43.96 155.33 43.96 155.33 42.81 155.33 41.66 154.18 41.66 153.02 41.66 153.02 42.81 153.02 43.96 154.18 43.96 154.18 45.12 155.33 45.12 156.48 45.12 157.63 45.12 158.79 45.12 158.79 43.96 158.79 42.81 159.94 42.81 159.94 41.66 158.79 41.66"/>
              <rect class="cls-9" x="149.56" y="28.98" width="1.15" height="1.15"/>
              <rect class="cls-9" x="148.41" y="27.82" width="1.15" height="1.15"/>
              <rect class="cls-9" x="146.1" y="39.35" width="1.15" height="1.15"/>
              <g>
                <polygon class="cls-5" points="161.09 37.05 161.09 38.2 159.94 38.2 159.94 37.05 159.94 35.89 158.79 35.89 158.79 37.05 158.79 38.2 157.63 38.2 157.63 39.35 157.63 40.5 158.79 40.5 158.79 39.35 159.94 39.35 159.94 40.5 159.94 41.66 161.09 41.66 162.25 41.66 162.25 40.5 162.25 39.35 162.25 38.2 162.25 37.05 161.09 37.05"/>
                <polygon class="cls-5" points="159.94 43.96 159.94 45.12 161.09 45.12 161.09 43.96 161.09 42.81 159.94 42.81 159.94 43.96"/>
                <polygon class="cls-5" points="158.79 46.27 158.79 47.42 159.94 47.42 159.94 46.27 159.94 45.12 158.79 45.12 158.79 46.27"/>
                <polygon class="cls-5" points="157.63 35.89 156.48 35.89 155.33 35.89 155.33 37.05 155.33 38.2 154.18 38.2 154.18 37.05 154.18 35.89 154.18 34.74 154.18 33.59 153.02 33.59 153.02 32.43 153.02 31.28 151.87 31.28 151.87 30.13 150.72 30.13 150.72 31.28 149.56 31.28 149.56 32.43 150.72 32.43 150.72 33.59 150.72 34.74 151.87 34.74 151.87 35.89 151.87 37.05 151.87 38.2 151.87 39.35 151.87 40.5 151.87 41.66 153.02 41.66 153.02 40.5 154.18 40.5 154.18 39.35 155.33 39.35 155.33 40.5 156.48 40.5 156.48 39.35 156.48 38.2 157.63 38.2 157.63 37.05 157.63 35.89"/>
                <polygon class="cls-5" points="150.72 40.5 150.72 39.35 149.56 39.35 149.56 38.2 148.41 38.2 147.26 38.2 146.1 38.2 146.1 39.35 147.26 39.35 148.41 39.35 148.41 40.5 148.41 41.66 149.56 41.66 149.56 42.81 149.56 43.96 150.72 43.96 150.72 45.12 151.87 45.12 151.87 46.27 153.02 46.27 153.02 47.42 154.18 47.42 155.33 47.42 156.48 47.42 157.63 47.42 157.63 46.27 156.48 46.27 156.48 45.12 155.33 45.12 155.33 46.27 154.18 46.27 154.18 45.12 153.02 45.12 153.02 43.96 151.87 43.96 151.87 42.81 151.87 41.66 150.72 41.66 150.72 40.5"/>
              </g>
              <rect class="cls-9" x="144.95" y="39.35" width="1.15" height="1.15"/>
              <g>
                <polygon class="cls-3" points="162.25 37.05 162.25 38.2 162.25 39.35 162.25 40.5 162.25 41.66 161.09 41.66 159.94 41.66 159.94 42.81 161.09 42.81 161.09 43.96 161.09 45.12 162.25 45.12 162.25 43.96 162.25 42.81 163.4 42.81 163.4 41.66 163.4 40.5 163.4 39.35 163.4 38.2 163.4 37.05 162.25 37.05"/>
                <polygon class="cls-3" points="159.94 46.27 159.94 47.42 158.79 47.42 158.79 48.57 159.94 48.57 161.09 48.57 161.09 47.42 161.09 46.27 161.09 45.12 159.94 45.12 159.94 46.27"/>
                <polygon class="cls-3" points="159.94 38.2 161.09 38.2 161.09 37.05 162.25 37.05 162.25 35.89 161.09 35.89 159.94 35.89 159.94 37.05 159.94 38.2"/>
                <polygon class="cls-3" points="158.79 43.96 158.79 45.12 159.94 45.12 159.94 43.96 159.94 42.81 158.79 42.81 158.79 43.96"/>
                <polygon class="cls-3" points="159.94 39.35 158.79 39.35 158.79 40.5 157.63 40.5 157.63 39.35 157.63 38.2 156.48 38.2 156.48 39.35 156.48 40.5 155.33 40.5 155.33 39.35 154.18 39.35 154.18 40.5 153.02 40.5 153.02 41.66 154.18 41.66 155.33 41.66 155.33 42.81 155.33 43.96 156.48 43.96 157.63 43.96 157.63 42.81 157.63 41.66 158.79 41.66 159.94 41.66 159.94 40.5 159.94 39.35"/>
                <polygon class="cls-3" points="158.79 45.12 157.63 45.12 156.48 45.12 156.48 46.27 157.63 46.27 157.63 47.42 158.79 47.42 158.79 46.27 158.79 45.12"/>
                <polygon class="cls-3" points="155.33 47.42 154.18 47.42 153.02 47.42 153.02 46.27 151.87 46.27 151.87 47.42 151.87 48.57 153.02 48.57 154.18 48.57 155.33 48.57 156.48 48.57 157.63 48.57 157.63 47.42 156.48 47.42 155.33 47.42"/>
                <rect class="cls-3" x="154.17" y="45.12" width="1.15" height="1.15"/>
                <polygon class="cls-3" points="154.18 35.89 154.18 37.05 154.18 38.2 155.33 38.2 155.33 37.05 155.33 35.89 156.48 35.89 157.63 35.89 157.63 37.05 157.63 38.2 158.79 38.2 158.79 37.05 158.79 35.89 159.94 35.89 159.94 34.74 158.79 34.74 157.63 34.74 156.48 34.74 155.33 34.74 155.33 33.59 154.18 33.59 154.18 34.74 154.18 35.89"/>
                <rect class="cls-3" x="153.02" y="43.96" width="1.15" height="1.15"/>
                <polygon class="cls-3" points="153.02 33.59 154.18 33.59 154.18 32.43 154.18 31.28 153.02 31.28 153.02 32.43 153.02 33.59"/>
                <polygon class="cls-3" points="151.87 42.81 151.87 43.96 153.02 43.96 153.02 42.81 153.02 41.66 151.87 41.66 151.87 42.81"/>
                <rect class="cls-3" x="151.87" y="30.13" width="1.15" height="1.15"/>
                <rect class="cls-3" x="150.72" y="45.12" width="1.15" height="1.15"/>
                <rect class="cls-3" x="150.72" y="28.98" width="1.15" height="1.15"/>
                <rect class="cls-3" x="149.56" y="43.96" width="1.15" height="1.15"/>
                <polygon class="cls-3" points="150.72 39.35 150.72 40.5 150.72 41.66 151.87 41.66 151.87 40.5 151.87 39.35 151.87 38.2 151.87 37.05 151.87 35.89 151.87 34.74 150.72 34.74 150.72 35.89 150.72 37.05 150.72 38.2 149.56 38.2 149.56 39.35 150.72 39.35"/>
                <polygon class="cls-3" points="150.72 32.43 149.56 32.43 149.56 33.59 149.56 34.74 150.72 34.74 150.72 33.59 150.72 32.43"/>
                <polygon class="cls-3" points="150.72 31.28 150.72 30.13 149.56 30.13 149.56 28.98 148.41 28.98 148.41 30.13 148.41 31.28 148.41 32.43 149.56 32.43 149.56 31.28 150.72 31.28"/>
                <rect class="cls-3" x="149.56" y="27.82" width="1.15" height="1.15"/>
                <polygon class="cls-3" points="149.56 41.66 148.41 41.66 148.41 42.81 148.41 43.96 149.56 43.96 149.56 42.81 149.56 41.66"/>
                <polygon class="cls-3" points="149.56 27.82 149.56 26.67 148.41 26.67 147.26 26.67 147.26 27.82 147.26 28.98 148.41 28.98 148.41 27.82 149.56 27.82"/>
                <polygon class="cls-3" points="148.41 39.35 147.26 39.35 147.26 40.5 146.1 40.5 144.95 40.5 144.95 41.66 146.1 41.66 147.26 41.66 148.41 41.66 148.41 40.5 148.41 39.35"/>
                <polygon class="cls-3" points="148.41 38.2 149.56 38.2 149.56 37.05 148.41 37.05 147.26 37.05 146.1 37.05 146.1 38.2 147.26 38.2 148.41 38.2"/>
                <rect class="cls-3" x="144.95" y="38.2" width="1.15" height="1.15"/>
                <rect class="cls-3" x="143.8" y="39.35" width="1.15" height="1.15"/>
              </g>
            </g>
          </g>
          <g>
            <rect class="cls-10" x="45.77" y="28.98" width="1.15" height="1.15"/>
            <rect class="cls-10" x="44.62" y="27.82" width="1.15" height="1.15"/>
            <rect class="cls-10" x="42.31" y="39.35" width="1.15" height="1.15"/>
            <g>
              <polygon class="cls-11" points="57.3 37.05 57.3 38.2 56.14 38.2 56.14 37.05 56.14 35.89 54.99 35.89 54.99 37.05 54.99 38.2 53.84 38.2 53.84 37.05 53.84 35.89 52.69 35.89 51.53 35.89 51.53 37.05 51.53 38.2 50.38 38.2 50.38 37.05 50.38 35.89 50.38 34.74 50.38 33.59 49.23 33.59 49.23 32.43 49.23 31.28 48.07 31.28 48.07 30.13 46.92 30.13 46.92 31.28 45.77 31.28 45.77 32.43 46.92 32.43 46.92 33.59 46.92 34.74 48.07 34.74 48.07 35.89 48.07 37.05 48.07 38.2 48.07 39.35 48.07 40.5 46.92 40.5 46.92 39.35 45.77 39.35 45.77 38.2 44.62 38.2 43.46 38.2 42.31 38.2 42.31 39.35 43.46 39.35 44.62 39.35 44.62 40.5 44.62 41.66 45.77 41.66 45.77 42.81 45.77 43.96 46.92 43.96 46.92 45.12 48.07 45.12 48.07 46.27 49.23 46.27 49.23 47.42 50.38 47.42 51.53 47.42 52.69 47.42 53.84 47.42 53.84 46.27 54.99 46.27 54.99 47.42 56.14 47.42 56.14 46.27 56.14 45.12 54.99 45.12 54.99 43.96 53.84 43.96 53.84 45.12 52.69 45.12 52.69 43.96 51.53 43.96 51.53 45.12 50.38 45.12 50.38 43.96 51.53 43.96 51.53 42.81 51.53 41.66 50.38 41.66 50.38 40.5 51.53 40.5 51.53 41.66 52.69 41.66 52.69 40.5 53.84 40.5 53.84 41.66 54.99 41.66 54.99 40.5 56.14 40.5 56.14 41.66 54.99 41.66 54.99 42.81 54.99 43.96 56.14 43.96 56.14 45.12 57.3 45.12 57.3 43.96 57.3 42.81 58.45 42.81 58.45 41.66 58.45 40.5 58.45 39.35 58.45 38.2 58.45 37.05 57.3 37.05"/>
              <polygon class="cls-11" points="53.84 41.66 52.69 41.66 52.69 42.81 52.69 43.96 53.84 43.96 53.84 42.81 53.84 41.66"/>
            </g>
            <rect class="cls-10" x="41.16" y="39.35" width="1.15" height="1.15"/>
            <g>
              <polygon class="cls-12" points="58.45 37.05 58.45 38.2 58.45 39.35 58.45 40.5 58.45 41.66 58.45 42.81 59.6 42.81 59.6 41.66 59.6 40.5 59.6 39.35 59.6 38.2 59.6 37.05 58.45 37.05"/>
              <polygon class="cls-12" points="57.3 43.96 57.3 45.12 58.45 45.12 58.45 43.96 58.45 42.81 57.3 42.81 57.3 43.96"/>
              <polygon class="cls-12" points="56.14 46.27 56.14 47.42 54.99 47.42 54.99 48.57 56.14 48.57 57.3 48.57 57.3 47.42 57.3 46.27 57.3 45.12 56.14 45.12 56.14 46.27"/>
              <polygon class="cls-12" points="56.14 38.2 57.3 38.2 57.3 37.05 58.45 37.05 58.45 35.89 57.3 35.89 56.14 35.89 56.14 37.05 56.14 38.2"/>
              <rect class="cls-12" x="54.99" y="43.96" width="1.15" height="1.15"/>
              <rect class="cls-12" x="54.99" y="40.5" width="1.15" height="1.15"/>
              <rect class="cls-12" x="53.84" y="46.27" width="1.15" height="1.15"/>
              <polygon class="cls-12" points="54.99 41.66 53.84 41.66 53.84 42.81 53.84 43.96 54.99 43.96 54.99 42.81 54.99 41.66"/>
              <rect class="cls-12" x="52.69" y="43.96" width="1.15" height="1.15"/>
              <rect class="cls-12" x="52.69" y="40.5" width="1.15" height="1.15"/>
              <polygon class="cls-12" points="51.53 47.42 50.38 47.42 49.23 47.42 49.23 46.27 48.07 46.27 48.07 47.42 48.07 48.57 49.23 48.57 50.38 48.57 51.53 48.57 52.69 48.57 53.84 48.57 53.84 47.42 52.69 47.42 51.53 47.42"/>
              <polygon class="cls-12" points="52.69 41.66 51.53 41.66 51.53 42.81 51.53 43.96 52.69 43.96 52.69 42.81 52.69 41.66"/>
              <rect class="cls-12" x="50.38" y="43.96" width="1.15" height="1.15"/>
              <rect class="cls-12" x="50.38" y="40.5" width="1.15" height="1.15"/>
              <polygon class="cls-12" points="50.38 35.89 50.38 37.05 50.38 38.2 51.53 38.2 51.53 37.05 51.53 35.89 52.69 35.89 53.84 35.89 53.84 37.05 53.84 38.2 54.99 38.2 54.99 37.05 54.99 35.89 56.14 35.89 56.14 34.74 54.99 34.74 53.84 34.74 52.69 34.74 51.53 34.74 51.53 33.59 50.38 33.59 50.38 34.74 50.38 35.89"/>
              <polygon class="cls-12" points="49.23 33.59 50.38 33.59 50.38 32.43 50.38 31.28 49.23 31.28 49.23 32.43 49.23 33.59"/>
              <rect class="cls-12" x="48.07" y="30.13" width="1.15" height="1.15"/>
              <rect class="cls-12" x="46.92" y="45.12" width="1.15" height="1.15"/>
              <rect class="cls-12" x="46.92" y="28.98" width="1.15" height="1.15"/>
              <rect class="cls-12" x="45.77" y="43.96" width="1.15" height="1.15"/>
              <polygon class="cls-12" points="46.92 39.35 46.92 40.5 48.07 40.5 48.07 39.35 48.07 38.2 48.07 37.05 48.07 35.89 48.07 34.74 46.92 34.74 46.92 35.89 46.92 37.05 46.92 38.2 45.77 38.2 45.77 39.35 46.92 39.35"/>
              <polygon class="cls-12" points="46.92 32.43 45.77 32.43 45.77 33.59 45.77 34.74 46.92 34.74 46.92 33.59 46.92 32.43"/>
              <polygon class="cls-12" points="46.92 31.28 46.92 30.13 45.77 30.13 45.77 28.98 44.62 28.98 44.62 30.13 44.62 31.28 44.62 32.43 45.77 32.43 45.77 31.28 46.92 31.28"/>
              <rect class="cls-12" x="45.77" y="27.82" width="1.15" height="1.15"/>
              <polygon class="cls-12" points="45.77 41.66 44.62 41.66 44.62 42.81 44.62 43.96 45.77 43.96 45.77 42.81 45.77 41.66"/>
              <polygon class="cls-12" points="45.77 27.82 45.77 26.67 44.62 26.67 43.46 26.67 43.46 27.82 43.46 28.98 44.62 28.98 44.62 27.82 45.77 27.82"/>
              <polygon class="cls-12" points="44.62 39.35 43.46 39.35 43.46 40.5 42.31 40.5 41.16 40.5 41.16 41.66 42.31 41.66 43.46 41.66 44.62 41.66 44.62 40.5 44.62 39.35"/>
              <polygon class="cls-12" points="44.62 38.2 45.77 38.2 45.77 37.05 44.62 37.05 43.46 37.05 42.31 37.05 42.31 38.2 43.46 38.2 44.62 38.2"/>
              <rect class="cls-12" x="41.16" y="38.2" width="1.15" height="1.15"/>
              <rect class="cls-12" x="40" y="39.35" width="1.15" height="1.15"/>
            </g>
          </g>
          <g>
            <polygon class="cls-8" points="193.38 41.66 192.23 41.66 192.23 42.81 192.23 43.96 191.08 43.96 189.93 43.96 189.93 42.81 189.93 41.66 188.77 41.66 187.62 41.66 187.62 42.81 187.62 43.96 188.77 43.96 188.77 45.12 189.93 45.12 191.08 45.12 192.23 45.12 193.38 45.12 193.38 43.96 193.38 42.81 194.54 42.81 194.54 41.66 193.38 41.66"/>
            <g>
              <polygon class="cls-5" points="191.08 42.81 191.08 43.96 192.23 43.96 192.23 42.81 192.23 41.66 191.08 41.66 191.08 42.81"/>
              <polygon class="cls-5" points="195.69 37.05 195.69 38.2 194.54 38.2 194.54 37.05 194.54 35.89 193.38 35.89 193.38 37.05 193.38 38.2 192.23 38.2 192.23 39.35 192.23 40.5 193.38 40.5 193.38 39.35 194.54 39.35 194.54 40.5 194.54 41.66 195.69 41.66 196.84 41.66 196.84 40.5 196.84 39.35 196.84 38.2 196.84 37.05 195.69 37.05"/>
              <polygon class="cls-5" points="194.54 43.96 194.54 45.12 195.69 45.12 195.69 43.96 195.69 42.81 194.54 42.81 194.54 43.96"/>
              <polygon class="cls-5" points="193.38 46.27 193.38 47.42 194.54 47.42 194.54 46.27 194.54 45.12 193.38 45.12 193.38 46.27"/>
              <polygon class="cls-5" points="192.23 35.89 191.08 35.89 189.93 35.89 189.93 37.05 189.93 38.2 188.77 38.2 188.77 37.05 188.77 35.89 188.77 34.74 188.77 33.59 187.62 33.59 187.62 32.43 187.62 31.28 186.47 31.28 186.47 30.13 185.31 30.13 185.31 31.28 184.16 31.28 184.16 32.43 185.31 32.43 185.31 33.59 185.31 34.74 186.47 34.74 186.47 35.89 186.47 37.05 186.47 38.2 186.47 39.35 186.47 40.5 186.47 41.66 187.62 41.66 187.62 40.5 188.77 40.5 188.77 39.35 189.93 39.35 189.93 40.5 191.08 40.5 191.08 39.35 191.08 38.2 192.23 38.2 192.23 37.05 192.23 35.89"/>
              <polygon class="cls-5" points="185.31 40.5 185.31 39.35 184.16 39.35 184.16 38.2 183.01 38.2 181.86 38.2 180.7 38.2 180.7 39.35 181.86 39.35 183.01 39.35 183.01 40.5 183.01 41.66 184.16 41.66 184.16 42.81 184.16 43.96 185.31 43.96 185.31 45.12 186.47 45.12 186.47 46.27 187.62 46.27 187.62 47.42 188.77 47.42 189.93 47.42 191.08 47.42 192.23 47.42 192.23 46.27 191.08 46.27 191.08 45.12 189.93 45.12 189.93 46.27 188.77 46.27 188.77 45.12 187.62 45.12 187.62 43.96 186.47 43.96 186.47 42.81 186.47 41.66 185.31 41.66 185.31 40.5"/>
            </g>
            <g>
              <rect class="cls-9" x="184.16" y="28.98" width="1.15" height="1.15"/>
              <rect class="cls-9" x="183.01" y="27.82" width="1.15" height="1.15"/>
              <polygon class="cls-9" points="179.55 39.35 179.55 40.5 180.7 40.5 181.86 40.5 181.86 39.35 180.7 39.35 179.55 39.35"/>
            </g>
            <g>
              <polygon class="cls-3" points="196.84 37.05 196.84 38.2 196.84 39.35 196.84 40.5 196.84 41.66 195.69 41.66 194.54 41.66 194.54 42.81 195.69 42.81 195.69 43.96 195.69 45.12 196.84 45.12 196.84 43.96 196.84 42.81 198 42.81 198 41.66 198 40.5 198 39.35 198 38.2 198 37.05 196.84 37.05"/>
              <polygon class="cls-3" points="194.54 46.27 194.54 47.42 193.38 47.42 193.38 48.57 194.54 48.57 195.69 48.57 195.69 47.42 195.69 46.27 195.69 45.12 194.54 45.12 194.54 46.27"/>
              <polygon class="cls-3" points="194.54 38.2 195.69 38.2 195.69 37.05 196.84 37.05 196.84 35.89 195.69 35.89 194.54 35.89 194.54 37.05 194.54 38.2"/>
              <polygon class="cls-3" points="193.38 43.96 193.38 45.12 194.54 45.12 194.54 43.96 194.54 42.81 193.38 42.81 193.38 43.96"/>
              <polygon class="cls-3" points="194.54 39.35 193.38 39.35 193.38 40.5 192.23 40.5 192.23 39.35 192.23 38.2 191.08 38.2 191.08 39.35 191.08 40.5 189.93 40.5 189.93 39.35 188.77 39.35 188.77 40.5 187.62 40.5 187.62 41.66 188.77 41.66 189.93 41.66 189.93 42.81 189.93 43.96 191.08 43.96 192.23 43.96 192.23 42.81 191.08 42.81 191.08 41.66 192.23 41.66 193.38 41.66 194.54 41.66 194.54 40.5 194.54 39.35"/>
              <polygon class="cls-3" points="193.38 45.12 192.23 45.12 191.08 45.12 191.08 46.27 192.23 46.27 192.23 47.42 193.38 47.42 193.38 46.27 193.38 45.12"/>
              <polygon class="cls-3" points="189.93 47.42 188.77 47.42 187.62 47.42 187.62 46.27 186.47 46.27 186.47 47.42 186.47 48.57 187.62 48.57 188.77 48.57 189.93 48.57 191.08 48.57 192.23 48.57 192.23 47.42 191.08 47.42 189.93 47.42"/>
              <rect class="cls-3" x="188.77" y="45.12" width="1.15" height="1.15"/>
              <polygon class="cls-3" points="188.77 35.89 188.77 37.05 188.77 38.2 189.93 38.2 189.93 37.05 189.93 35.89 191.08 35.89 192.23 35.89 192.23 37.05 192.23 38.2 193.38 38.2 193.38 37.05 193.38 35.89 194.54 35.89 194.54 34.74 193.38 34.74 192.23 34.74 191.08 34.74 189.93 34.74 189.93 33.59 188.77 33.59 188.77 34.74 188.77 35.89"/>
              <rect class="cls-3" x="187.62" y="43.96" width="1.15" height="1.15"/>
              <polygon class="cls-3" points="187.62 33.59 188.77 33.59 188.77 32.43 188.77 31.28 187.62 31.28 187.62 32.43 187.62 33.59"/>
              <polygon class="cls-3" points="186.47 42.81 186.47 43.96 187.62 43.96 187.62 42.81 187.62 41.66 186.47 41.66 186.47 42.81"/>
              <rect class="cls-3" x="186.47" y="30.13" width="1.15" height="1.15"/>
              <rect class="cls-3" x="185.31" y="45.12" width="1.15" height="1.15"/>
              <rect class="cls-3" x="185.31" y="28.98" width="1.15" height="1.15"/>
              <rect class="cls-3" x="184.16" y="43.96" width="1.15" height="1.15"/>
              <polygon class="cls-3" points="185.31 39.35 185.31 40.5 185.31 41.66 186.47 41.66 186.47 40.5 186.47 39.35 186.47 38.2 186.47 37.05 186.47 35.89 186.47 34.74 185.31 34.74 185.31 35.89 185.31 37.05 185.31 38.2 184.16 38.2 184.16 39.35 185.31 39.35"/>
              <polygon class="cls-3" points="185.31 32.43 184.16 32.43 184.16 33.59 184.16 34.74 185.31 34.74 185.31 33.59 185.31 32.43"/>
              <polygon class="cls-3" points="185.31 31.28 185.31 30.13 184.16 30.13 184.16 28.98 183.01 28.98 183.01 30.13 183.01 31.28 183.01 32.43 184.16 32.43 184.16 31.28 185.31 31.28"/>
              <rect class="cls-3" x="184.16" y="27.82" width="1.15" height="1.15"/>
              <polygon class="cls-3" points="184.16 41.66 183.01 41.66 183.01 42.81 183.01 43.96 184.16 43.96 184.16 42.81 184.16 41.66"/>
              <polygon class="cls-3" points="184.16 27.82 184.16 26.67 183.01 26.67 181.86 26.67 181.86 27.82 181.86 28.98 183.01 28.98 183.01 27.82 184.16 27.82"/>
              <polygon class="cls-3" points="183.01 39.35 181.86 39.35 181.86 40.5 180.7 40.5 179.55 40.5 179.55 41.66 180.7 41.66 181.86 41.66 183.01 41.66 183.01 40.5 183.01 39.35"/>
              <polygon class="cls-3" points="183.01 38.2 184.16 38.2 184.16 37.05 183.01 37.05 181.86 37.05 180.7 37.05 180.7 38.2 181.86 38.2 183.01 38.2"/>
              <rect class="cls-3" x="179.55" y="38.2" width="1.15" height="1.15"/>
              <rect class="cls-3" x="178.4" y="39.35" width="1.15" height="1.15"/>
            </g>
          </g>
        </g>
      </g>
    </g>
  </g>
</svg>
